<?xml version="1.0" encoding="UTF-8"?>
<!DOCTYPE svg PUBLIC "-//W3C//DTD SVG 1.1//EN" "http://www.w3.org/Graphics/SVG/1.1/DTD/svg11.dtd">
<svg version="1.2" width="297.26mm" height="210.26mm" viewBox="0 0 29726 21026" preserveAspectRatio="xMidYMid" fill-rule="evenodd" stroke-width="28.222" stroke-linejoin="round" xmlns="http://www.w3.org/2000/svg" xmlns:ooo="http://xml.openoffice.org/svg/export" xmlns:xlink="http://www.w3.org/1999/xlink" xmlns:presentation="http://sun.com/xmlns/staroffice/presentation" xmlns:smil="http://www.w3.org/2001/SMIL20/" xmlns:anim="urn:oasis:names:tc:opendocument:xmlns:animation:1.0" xmlns:svg="urn:oasis:names:tc:opendocument:xmlns:svg-compatible:1.0" xml:space="preserve">
 <defs class="ClipPathGroup">
  <clipPath id="presentation_clip_path" clipPathUnits="userSpaceOnUse">
   <rect x="0" y="0" width="29726" height="21026"/>
  </clipPath>
  <clipPath id="presentation_clip_path_shrink" clipPathUnits="userSpaceOnUse">
   <rect x="29" y="21" width="29667" height="20984"/>
  </clipPath>
 </defs>
 <defs class="TextShapeIndex">
  <g ooo:slide="id1" ooo:id-list="id3"/>
 </defs>
 <defs class="EmbeddedBulletChars">
  <g id="bullet-char-template-57356" transform="scale(0.00048828125,-0.00048828125)">
   <path d="M 580,1141 L 1163,571 580,0 -4,571 580,1141 Z"/>
  </g>
  <g id="bullet-char-template-57354" transform="scale(0.00048828125,-0.00048828125)">
   <path d="M 8,1128 L 1137,1128 1137,0 8,0 8,1128 Z"/>
  </g>
  <g id="bullet-char-template-10146" transform="scale(0.00048828125,-0.00048828125)">
   <path d="M 174,0 L 602,739 174,1481 1456,739 174,0 Z M 1358,739 L 309,1346 659,739 1358,739 Z"/>
  </g>
  <g id="bullet-char-template-10132" transform="scale(0.00048828125,-0.00048828125)">
   <path d="M 2015,739 L 1276,0 717,0 1260,543 174,543 174,936 1260,936 717,1481 1274,1481 2015,739 Z"/>
  </g>
  <g id="bullet-char-template-10007" transform="scale(0.00048828125,-0.00048828125)">
   <path d="M 0,-2 C -7,14 -16,27 -25,37 L 356,567 C 262,823 215,952 215,954 215,979 228,992 255,992 264,992 276,990 289,987 310,991 331,999 354,1012 L 381,999 492,748 772,1049 836,1024 860,1049 C 881,1039 901,1025 922,1006 886,937 835,863 770,784 769,783 710,716 594,584 L 774,223 C 774,196 753,168 711,139 L 727,119 C 717,90 699,76 672,76 641,76 570,178 457,381 L 164,-76 C 142,-110 111,-127 72,-127 30,-127 9,-110 8,-76 1,-67 -2,-52 -2,-32 -2,-23 -1,-13 0,-2 Z"/>
  </g>
  <g id="bullet-char-template-10004" transform="scale(0.00048828125,-0.00048828125)">
   <path d="M 285,-33 C 182,-33 111,30 74,156 52,228 41,333 41,471 41,549 55,616 82,672 116,743 169,778 240,778 293,778 328,747 346,684 L 369,508 C 377,444 397,411 428,410 L 1163,1116 C 1174,1127 1196,1133 1229,1133 1271,1133 1292,1118 1292,1087 L 1292,965 C 1292,929 1282,901 1262,881 L 442,47 C 390,-6 338,-33 285,-33 Z"/>
  </g>
  <g id="bullet-char-template-9679" transform="scale(0.00048828125,-0.00048828125)">
   <path d="M 813,0 C 632,0 489,54 383,161 276,268 223,411 223,592 223,773 276,916 383,1023 489,1130 632,1184 813,1184 992,1184 1136,1130 1245,1023 1353,916 1407,772 1407,592 1407,412 1353,268 1245,161 1136,54 992,0 813,0 Z"/>
  </g>
  <g id="bullet-char-template-8226" transform="scale(0.00048828125,-0.00048828125)">
   <path d="M 346,457 C 273,457 209,483 155,535 101,586 74,649 74,723 74,796 101,859 155,911 209,963 273,989 346,989 419,989 480,963 531,910 582,859 608,796 608,723 608,648 583,586 532,535 482,483 420,457 346,457 Z"/>
  </g>
  <g id="bullet-char-template-8211" transform="scale(0.00048828125,-0.00048828125)">
   <path d="M -4,459 L 1135,459 1135,606 -4,606 -4,459 Z"/>
  </g>
  <g id="bullet-char-template-61548" transform="scale(0.00048828125,-0.00048828125)">
   <path d="M 173,740 C 173,903 231,1043 346,1159 462,1274 601,1332 765,1332 928,1332 1067,1274 1183,1159 1299,1043 1357,903 1357,740 1357,577 1299,437 1183,322 1067,206 928,148 765,148 601,148 462,206 346,322 231,437 173,577 173,740 Z"/>
  </g>
 </defs>
 <g>
  <g id="id2" class="Master_Slide">
   <g id="bg-id2" class="Background"/>
   <g id="bo-id2" class="BackgroundObjects"/>
  </g>
 </g>
 <g class="SlideGroup">
  <g>
   <g id="container-id1">
    <g id="id1" class="Slide" clip-path="url(#presentation_clip_path)">
     <g class="Page">
      <g class="Graphic">
       <g id="id3">
        <rect class="BoundingBox" stroke="none" fill="none" x="0" y="0" width="29726" height="21026"/>
        <path fill="rgb(6,4,114)" stroke="none" d="M 14732,4831 L 15331,3371 16233,3371 16233,3432 16161,3432 C 16095,3432 16043,3443 16004,3466 15977,3481 15955,3507 15939,3543 15927,3569 15921,3637 15921,3747 L 15921,5206 C 15921,5319 15927,5390 15939,5418 15951,5447 15975,5471 16012,5492 16049,5514 16099,5524 16161,5524 L 16233,5524 16233,5586 15077,5586 15077,5524 15149,5524 C 15214,5524 15266,5513 15305,5490 15333,5475 15354,5449 15371,5412 15383,5386 15389,5317 15389,5206 L 15389,3565 14541,5586 14502,5586 13640,3580 13640,5139 C 13640,5248 13642,5315 13648,5340 13662,5394 13693,5439 13740,5473 13787,5507 13862,5524 13963,5524 L 13963,5586 13204,5586 13204,5524 13227,5524 C 13276,5525 13322,5518 13364,5501 13407,5484 13439,5461 13461,5433 13483,5405 13499,5365 13511,5314 13514,5302 13515,5246 13515,5147 L 13515,3747 C 13515,3635 13509,3565 13497,3537 13485,3509 13460,3485 13423,3463 13386,3442 13337,3432 13275,3432 L 13204,3432 13204,3371 14110,3371 14732,4831 14732,4831 Z"/>
        <path fill="rgb(6,4,114)" stroke="none" d="M 16359,3371 L 18312,3371 18312,3972 18252,3972 C 18226,3824 18192,3719 18151,3659 18111,3598 18061,3558 18002,3541 17943,3524 17827,3515 17653,3515 L 17202,3515 17202,5235 C 17202,5359 17220,5439 17257,5473 17293,5507 17360,5524 17457,5524 L 17514,5524 17514,5586 16359,5586 16359,5524 16421,5524 C 16517,5524 16582,5506 16618,5470 16653,5433 16670,5355 16670,5235 L 16670,3707 C 16670,3607 16656,3536 16627,3494 16597,3453 16531,3432 16429,3432 L 16359,3432 16359,3371 16359,3371 Z"/>
        <path fill="rgb(6,4,114)" stroke="none" d="M 20102,3371 L 20844,3371 20844,3433 C 20768,3439 20705,3467 20657,3516 20609,3565 20546,3665 20469,3818 L 19779,5169 C 19671,5381 19578,5511 19499,5561 19420,5611 19326,5636 19217,5636 19099,5636 19009,5604 18949,5540 18888,5476 18858,5404 18858,5325 18858,5260 18880,5207 18922,5165 18965,5123 19018,5103 19080,5103 19139,5103 19182,5118 19209,5148 19236,5179 19255,5234 19266,5313 19279,5407 19318,5454 19382,5454 19458,5454 19531,5381 19601,5235 L 19632,5169 18840,3731 C 18773,3611 18714,3532 18665,3496 18615,3460 18543,3439 18448,3433 L 18448,3371 19552,3371 19552,3433 19509,3433 C 19381,3433 19317,3463 19317,3524 19317,3547 19329,3581 19353,3625 L 19906,4634 20326,3808 C 20384,3695 20413,3614 20413,3565 20413,3528 20396,3497 20362,3473 20328,3449 20241,3436 20102,3433 L 20102,3371 20102,3371 Z"/>
        <path fill="rgb(6,4,114)" stroke="none" d="M 10001,15516 C 10157,15516 10272,15498 10346,15463 10420,15428 10477,15378 10517,15315 10556,15251 10576,15170 10576,15071 10576,14972 10557,14891 10518,14828 10479,14765 10423,14717 10350,14684 10278,14651 10161,14635 10001,14636 L 10001,15516 10001,15516 Z M 10001,15644 L 10001,16361 9999,16443 C 9999,16502 10015,16547 10045,16577 10075,16608 10120,16623 10179,16623 10267,16623 10348,16603 10422,16564 10496,16525 10553,16469 10593,16395 10632,16320 10652,16238 10652,16147 10652,16042 10628,15949 10579,15866 10531,15783 10465,15725 10380,15692 10295,15659 10169,15643 10001,15644 L 10001,15644 Z M 10601,15560 C 10813,15610 10962,15669 11047,15740 11170,15840 11232,15969 11232,16128 11232,16297 11164,16435 11029,16545 10863,16678 10622,16745 10306,16745 L 9170,16745 9170,16684 C 9273,16684 9344,16674 9381,16655 9418,16636 9443,16611 9458,16580 9473,16549 9481,16473 9481,16353 L 9481,14903 C 9481,14782 9473,14706 9458,14675 9443,14643 9417,14618 9380,14600 9343,14581 9272,14572 9170,14572 L 9170,14510 10242,14510 C 10498,14510 10679,14534 10785,14579 10892,14625 10976,14693 11037,14783 11099,14874 11130,14970 11130,15072 11130,15180 11091,15276 11013,15360 10935,15444 10797,15511 10601,15560 L 10601,15560 Z"/>
        <path fill="rgb(6,4,114)" stroke="none" d="M 12957,15984 L 13563,14510 14474,14510 14474,14572 14401,14572 C 14335,14572 14283,14583 14243,14606 14216,14622 14194,14647 14177,14684 14165,14710 14159,14779 14159,14890 L 14159,16362 C 14159,16477 14165,16548 14177,16577 14189,16605 14214,16630 14251,16652 14289,16673 14339,16684 14401,16684 L 14474,16684 14474,16745 13306,16745 13306,16684 13379,16684 C 13445,16684 13498,16672 13537,16649 13565,16634 13587,16607 13603,16570 13615,16544 13621,16474 13621,16362 L 13621,14707 12764,16745 12725,16745 11855,14722 11855,16295 C 11855,16405 11858,16472 11863,16498 11878,16552 11909,16597 11956,16632 12004,16666 12079,16684 12181,16684 L 12181,16745 11417,16745 11417,16684 11440,16684 C 11489,16685 11535,16677 11578,16660 11621,16643 11654,16620 11676,16591 11697,16563 11714,16523 11727,16471 11729,16459 11730,16403 11730,16303 L 11730,14890 C 11730,14777 11724,14706 11712,14678 11700,14650 11675,14625 11638,14604 11600,14582 11550,14572 11488,14572 L 11417,14572 11417,14510 12330,14510 12957,15984 12957,15984 Z"/>
        <path fill="rgb(6,4,114)" stroke="none" d="M 14603,14510 L 15766,14510 15766,14571 15728,14571 C 15618,14571 15545,14591 15508,14631 15471,14671 15453,14748 15453,14860 L 15453,15527 C 15607,15527 15707,15522 15753,15512 15799,15501 15842,15471 15881,15421 15921,15371 15959,15275 15995,15132 16038,14965 16079,14840 16119,14756 16159,14672 16215,14606 16286,14557 16357,14508 16445,14483 16552,14483 16657,14483 16742,14513 16806,14573 16869,14633 16901,14708 16901,14796 16901,14864 16880,14918 16837,14957 16794,14997 16741,15016 16677,15016 16552,15016 16484,14944 16474,14799 16470,14727 16445,14689 16399,14689 16349,14689 16307,14718 16272,14774 16237,14830 16199,14931 16158,15076 16119,15217 16085,15324 16056,15395 16027,15465 15987,15525 15934,15573 16004,15591 16058,15614 16096,15643 16134,15671 16169,15708 16199,15754 16230,15799 16296,15915 16397,16100 L 16624,16506 C 16659,16566 16701,16611 16750,16640 16799,16669 16858,16684 16927,16684 L 16927,16745 16180,16745 15720,15888 C 15667,15791 15628,15733 15604,15713 15579,15692 15529,15680 15453,15677 L 15453,16433 C 15453,16541 15475,16610 15520,16639 15564,16669 15646,16684 15766,16684 L 15766,16745 14603,16745 14603,16684 C 14731,16681 14816,16663 14856,16627 14895,16591 14915,16515 14915,16397 L 14915,14903 C 14915,14772 14899,14683 14867,14638 14836,14593 14764,14571 14651,14571 L 14603,14571 14603,14510 14603,14510 Z"/>
        <path fill="rgb(6,4,115)" stroke="none" d="M 20641,4345 C 20642,4353 20643,4360 20645,4368 20697,4718 20716,5128 20619,5471 21900,6184 22950,7267 23515,8650 23515,6726 22315,5236 20641,4345 L 20641,4345 Z"/>
        <path fill="rgb(6,4,115)" stroke="none" d="M 12460,13996 C 19189,14023 19028,8838 19028,8489 16032,14614 9504,13405 7408,10222 5620,7494 6413,3463 11237,2254 11667,1556 12406,1072 13144,696 L 13092,696 13091,696 13085,696 12594,696 C 4687,932 2679,13943 12460,13996 L 12460,13996 Z"/>
        <path fill="rgb(6,4,115)" stroke="none" d="M 7420,8784 C 7488,9215 7568,9309 7878,9766 8254,9309 9679,8220 9679,8220 9679,8220 9665,7629 9504,7266 9396,6930 7729,8354 7420,8784 L 7420,8784 Z"/>
        <path fill="rgb(6,4,115)" stroke="none" d="M 9774,4365 C 9558,3867 7542,5870 7328,6569 7139,7280 7193,7872 7233,8060 7583,7214 9814,5614 9814,5614 9814,5614 9988,4848 9774,4365 L 9774,4365 Z"/>
        <path fill="rgb(6,4,115)" stroke="none" d="M 12884,4655 C 12882,4612 12885,4570 12889,4529 11671,5350 10746,6646 10429,8489 11056,7216 11928,6272 12930,5620 12869,5490 12833,5348 12828,5207 12820,5028 12854,4855 12884,4681 12884,4673 12885,4664 12884,4655 L 12884,4655 Z"/>
        <path fill="rgb(6,4,115)" stroke="none" d="M 10429,5829 C 13332,-137 21500,1005 23515,5977 23515,2789 20286,777 17020,696 L 16575,696 C 13759,779 11025,2327 10429,5829 L 10429,5829 Z"/>
        <path fill="rgb(6,4,115)" stroke="none" d="M 22306,11335 C 22238,10905 22158,10811 21849,10355 21472,10811 20034,11900 20034,11900 20034,11900 20047,12491 20222,12854 20316,13176 21997,11766 22306,11335 L 22306,11335 Z"/>
        <path fill="rgb(6,4,115)" stroke="none" d="M 19953,15756 C 20169,16253 22183,14251 22399,13539 22587,12839 22533,12235 22493,12060 22130,12906 19912,14493 19912,14493 19912,14493 19738,15272 19953,15756 L 19953,15756 Z"/>
        <path fill="rgb(6,4,115)" stroke="none" d="M 16085,10154 C 16085,9401 15495,8783 14770,8783 14030,8783 13439,9401 13439,10154 13439,10906 14030,11510 14770,11510 15495,11510 16085,10906 16085,10154 L 16085,10154 Z"/>
        <path fill="rgb(6,4,115)" stroke="none" d="M 17267,6123 C 10538,6096 10698,11389 10698,11752 13694,5492 20223,6728 22319,9980 24106,12773 23233,16898 18395,18133 17831,18846 16837,19356 16192,19719 24549,20081 27263,6177 17267,6123 L 17267,6123 Z"/>
        <path fill="rgb(6,4,115)" stroke="none" d="M 8751,14573 C 8755,14552 8760,14533 8765,14513 7640,13803 6726,12793 6211,11536 6211,13304 7224,14707 8686,15615 8630,15276 8693,14923 8751,14573 L 8751,14573 Z"/>
        <path fill="rgb(6,4,115)" stroke="none" d="M 17289,14212 C 17340,14331 17370,14459 17370,14582 17370,14821 17360,15067 17309,15303 18291,14480 19021,13295 19296,11698 18774,12757 18083,13587 17289,14212 L 17289,14212 Z"/>
        <path fill="rgb(6,4,115)" stroke="none" d="M 19296,14479 C 16569,20565 8227,19410 6211,14317 6211,20538 17980,22379 19296,14479 L 19296,14479 Z"/>
        <path fill="rgb(6,4,115)" stroke="none" d="M 8686,15615 L 8765,14512 C 8765,14512 8587,14673 8587,14704 8587,14736 8541,15272 8541,15272 L 8594,15392 8686,15615 8686,15615 Z"/>
        <path fill="rgb(6,4,115)" stroke="none" d="M 17310,15303 L 17289,14211 17373,14211 C 17373,14211 17763,14641 17751,14659 17741,14676 17493,14992 17490,15027 17486,15063 17310,15303 17310,15303 L 17310,15303 Z"/>
        <path fill="rgb(6,4,115)" stroke="none" d="M 12930,5621 L 12889,4529 12678,4791 C 12678,4791 12606,5036 12628,5100 12650,5163 12724,5330 12728,5344 12731,5358 12777,5510 12777,5510 L 12930,5621 12930,5621 Z"/>
        <path fill="rgb(6,4,115)" stroke="none" d="M 20619,5472 L 20641,4345 20777,4568 20844,4975 20731,5305 20619,5472 20619,5472 Z"/>
       </g>
      </g>
     </g>
    </g>
   </g>
  </g>
 </g>
</svg>