<?xml version="1.0" encoding="UTF-8"?>
<!DOCTYPE svg PUBLIC "-//W3C//DTD SVG 1.1//EN" "http://www.w3.org/Graphics/SVG/1.1/DTD/svg11.dtd">
<svg version="1.2" width="132.82mm" height="132.82mm" viewBox="0 0 13282 13282" preserveAspectRatio="xMidYMid" fill-rule="evenodd" stroke-width="28.222" stroke-linejoin="round" xmlns="http://www.w3.org/2000/svg" xmlns:ooo="http://xml.openoffice.org/svg/export" xmlns:xlink="http://www.w3.org/1999/xlink" xmlns:presentation="http://sun.com/xmlns/staroffice/presentation" xmlns:smil="http://www.w3.org/2001/SMIL20/" xmlns:anim="urn:oasis:names:tc:opendocument:xmlns:animation:1.0" xmlns:svg="urn:oasis:names:tc:opendocument:xmlns:svg-compatible:1.0" xml:space="preserve">
 <defs class="ClipPathGroup">
  <clipPath id="presentation_clip_path" clipPathUnits="userSpaceOnUse">
   <rect x="0" y="0" width="13282" height="13282"/>
  </clipPath>
  <clipPath id="presentation_clip_path_shrink" clipPathUnits="userSpaceOnUse">
   <rect x="13" y="13" width="13256" height="13256"/>
  </clipPath>
 </defs>
 <defs class="TextShapeIndex">
  <g ooo:slide="id1" ooo:id-list="id3"/>
 </defs>
 <defs class="EmbeddedBulletChars">
  <g id="bullet-char-template-57356" transform="scale(0.00048828125,-0.00048828125)">
   <path d="M 580,1141 L 1163,571 580,0 -4,571 580,1141 Z"/>
  </g>
  <g id="bullet-char-template-57354" transform="scale(0.00048828125,-0.00048828125)">
   <path d="M 8,1128 L 1137,1128 1137,0 8,0 8,1128 Z"/>
  </g>
  <g id="bullet-char-template-10146" transform="scale(0.00048828125,-0.00048828125)">
   <path d="M 174,0 L 602,739 174,1481 1456,739 174,0 Z M 1358,739 L 309,1346 659,739 1358,739 Z"/>
  </g>
  <g id="bullet-char-template-10132" transform="scale(0.00048828125,-0.00048828125)">
   <path d="M 2015,739 L 1276,0 717,0 1260,543 174,543 174,936 1260,936 717,1481 1274,1481 2015,739 Z"/>
  </g>
  <g id="bullet-char-template-10007" transform="scale(0.00048828125,-0.00048828125)">
   <path d="M 0,-2 C -7,14 -16,27 -25,37 L 356,567 C 262,823 215,952 215,954 215,979 228,992 255,992 264,992 276,990 289,987 310,991 331,999 354,1012 L 381,999 492,748 772,1049 836,1024 860,1049 C 881,1039 901,1025 922,1006 886,937 835,863 770,784 769,783 710,716 594,584 L 774,223 C 774,196 753,168 711,139 L 727,119 C 717,90 699,76 672,76 641,76 570,178 457,381 L 164,-76 C 142,-110 111,-127 72,-127 30,-127 9,-110 8,-76 1,-67 -2,-52 -2,-32 -2,-23 -1,-13 0,-2 Z"/>
  </g>
  <g id="bullet-char-template-10004" transform="scale(0.00048828125,-0.00048828125)">
   <path d="M 285,-33 C 182,-33 111,30 74,156 52,228 41,333 41,471 41,549 55,616 82,672 116,743 169,778 240,778 293,778 328,747 346,684 L 369,508 C 377,444 397,411 428,410 L 1163,1116 C 1174,1127 1196,1133 1229,1133 1271,1133 1292,1118 1292,1087 L 1292,965 C 1292,929 1282,901 1262,881 L 442,47 C 390,-6 338,-33 285,-33 Z"/>
  </g>
  <g id="bullet-char-template-9679" transform="scale(0.00048828125,-0.00048828125)">
   <path d="M 813,0 C 632,0 489,54 383,161 276,268 223,411 223,592 223,773 276,916 383,1023 489,1130 632,1184 813,1184 992,1184 1136,1130 1245,1023 1353,916 1407,772 1407,592 1407,412 1353,268 1245,161 1136,54 992,0 813,0 Z"/>
  </g>
  <g id="bullet-char-template-8226" transform="scale(0.00048828125,-0.00048828125)">
   <path d="M 346,457 C 273,457 209,483 155,535 101,586 74,649 74,723 74,796 101,859 155,911 209,963 273,989 346,989 419,989 480,963 531,910 582,859 608,796 608,723 608,648 583,586 532,535 482,483 420,457 346,457 Z"/>
  </g>
  <g id="bullet-char-template-8211" transform="scale(0.00048828125,-0.00048828125)">
   <path d="M -4,459 L 1135,459 1135,606 -4,606 -4,459 Z"/>
  </g>
  <g id="bullet-char-template-61548" transform="scale(0.00048828125,-0.00048828125)">
   <path d="M 173,740 C 173,903 231,1043 346,1159 462,1274 601,1332 765,1332 928,1332 1067,1274 1183,1159 1299,1043 1357,903 1357,740 1357,577 1299,437 1183,322 1067,206 928,148 765,148 601,148 462,206 346,322 231,437 173,577 173,740 Z"/>
  </g>
 </defs>
 <g>
  <g id="id2" class="Master_Slide">
   <g id="bg-id2" class="Background"/>
   <g id="bo-id2" class="BackgroundObjects"/>
  </g>
 </g>
 <g class="SlideGroup">
  <g>
   <g id="container-id1">
    <g id="id1" class="Slide" clip-path="url(#presentation_clip_path)">
     <g class="Page">
      <g class="Graphic">
       <g id="id3">
        <rect class="BoundingBox" stroke="none" fill="none" x="0" y="0" width="13282" height="13282"/>
        <path fill="rgb(51,71,153)" stroke="none" d="M 3538,3506 L 3538,3506 C 3503,3541 3473,3580 3448,3623 3398,3709 3372,3806 3372,3906 3372,3908 3372,3910 3372,3913 3376,4225 3640,4472 3952,4472 L 4098,4472 4098,5162 3805,5162 C 3100,5162 2505,4585 2510,3881 L 2510,3881 C 2511,3661 2570,3445 2680,3255 2792,3061 2952,2901 3145,2789 3338,2678 3557,2619 3780,2619 L 10124,2619 10124,2619 10124,2619 C 10147,2619 10170,2625 10191,2637 10211,2649 10228,2666 10240,2686 10251,2706 10258,2729 10258,2753 L 10258,2753 10258,3206 10258,3206 C 10258,3230 10251,3253 10240,3273 10228,3294 10211,3311 10191,3322 10170,3334 10147,3340 10124,3340 L 10124,3340 3938,3340 3938,3340 3937,3340 C 3838,3340 3741,3366 3655,3416 3612,3440 3573,3471 3538,3506 L 3538,3506 3538,3506 Z"/>
        <path fill="none" stroke="rgb(0,0,0)" stroke-width="181" stroke-linejoin="miter" d="M 3538,3506 L 3538,3506 C 3503,3541 3473,3580 3448,3623 3398,3709 3372,3806 3372,3906 L 3372,3913 C 3376,4225 3640,4472 3952,4472 L 4098,4472 4098,5162 3805,5162 C 3100,5162 2505,4585 2510,3881 L 2510,3881 C 2511,3661 2570,3445 2680,3255 2792,3061 2952,2901 3145,2789 3338,2678 3557,2619 3780,2619 L 10124,2619 10124,2619 10124,2619 C 10147,2619 10170,2625 10191,2637 10211,2649 10228,2666 10240,2686 10251,2706 10258,2729 10258,2753 L 10258,2753 10258,3206 10258,3206 C 10258,3230 10251,3253 10240,3273 10228,3294 10211,3311 10191,3322 10170,3334 10147,3340 10124,3340 L 10124,3340 3938,3340 3938,3340 3937,3340 C 3838,3340 3741,3366 3655,3416 3612,3440 3573,3471 3538,3506 Z"/>
        <path fill="rgb(51,71,153)" stroke="none" d="M 5076,5164 L 4325,5164 4700,4675 5076,5164 5076,5164 5076,5164 Z"/>
        <path fill="none" stroke="rgb(0,0,0)" stroke-width="181" stroke-linejoin="miter" d="M 5076,5164 L 4325,5164 4700,4675 5076,5164 5076,5164 5076,5164 Z"/>
        <path fill="rgb(0,8,76)" stroke="none" d="M 5076,10365 L 4325,10365 4700,9876 5076,10365 5076,10365 5076,10365 Z"/>
        <path fill="none" stroke="rgb(0,0,0)" stroke-width="181" stroke-linejoin="miter" d="M 5076,10365 L 4325,10365 4700,9876 5076,10365 5076,10365 5076,10365 Z"/>
        <path fill="rgb(51,71,153)" stroke="none" d="M 10258,4567 L 10258,5032 10258,5032 C 10258,5055 10251,5078 10240,5098 10228,5118 10211,5135 10191,5146 10171,5158 10148,5164 10125,5164 L 5302,5164 5302,4471 10162,4471 10162,4471 10162,4471 C 10179,4471 10195,4475 10210,4484 10224,4492 10236,4504 10245,4519 10253,4533 10258,4550 10258,4566 10258,4567 10258,4567 10258,4567 L 10258,4567 10258,4567 Z"/>
        <path fill="none" stroke="rgb(0,0,0)" stroke-width="181" stroke-linejoin="miter" d="M 10258,4567 L 10258,5032 10258,5032 C 10258,5055 10251,5078 10240,5098 10228,5118 10211,5135 10191,5146 10171,5158 10148,5164 10125,5164 L 5302,5164 5302,4471 10162,4471 10162,4471 10162,4471 C 10179,4471 10195,4475 10210,4484 10224,4492 10236,4504 10245,4519 10253,4533 10258,4550 10258,4566 L 10258,4567 Z"/>
        <path fill="rgb(216,80,54)" stroke="none" d="M 5302,3893 L 5302,5164 5076,5164 4700,4675 4325,5164 4099,5164 4099,3893 5302,3893 5302,3893 5302,3893 Z"/>
        <path fill="none" stroke="rgb(0,0,0)" stroke-width="181" stroke-linejoin="miter" d="M 5302,3893 L 5302,5164 5076,5164 4700,4675 4325,5164 4099,5164 4099,3893 5302,3893 5302,3893 5302,3893 Z"/>
        <path fill="rgb(255,255,255)" stroke="none" d="M 9924,3340 L 9924,4471 5208,4471 5208,3893 4064,3893 4064,4471 3911,4471 C 3613,4471 3372,4218 3372,3905 L 3372,3905 C 3372,3905 3372,3904 3372,3903 3372,3802 3399,3702 3450,3614 3472,3575 3500,3538 3531,3505 L 3531,3505 C 3566,3468 3607,3436 3651,3410 3731,3364 3820,3340 3912,3340 L 9924,3340 9924,3340 Z"/>
        <path fill="none" stroke="rgb(0,0,0)" stroke-width="181" stroke-linejoin="miter" d="M 9924,3340 L 9924,4471 5208,4471 5208,3893 4064,3893 4064,4471 3911,4471 C 3613,4471 3372,4218 3372,3905 L 3372,3905 3372,3903 C 3372,3802 3399,3702 3450,3614 3472,3575 3500,3538 3531,3505 L 3531,3505 C 3566,3468 3607,3436 3651,3410 3731,3364 3820,3340 3912,3340 L 9924,3340 Z"/>
        <path fill="rgb(216,203,202)" stroke="none" d="M 4099,3893 L 5302,3893 5302,4472 4099,4472 4099,3893 4099,3893 Z"/>
        <path fill="none" stroke="rgb(0,0,0)" stroke-width="181" stroke-linejoin="miter" d="M 4099,3893 L 5302,3893 5302,4472 4099,4472 4099,3893 4099,3893 Z"/>
        <path fill="rgb(16,41,119)" stroke="none" d="M 9494,6120 L 9494,6120 C 9529,6155 9559,6195 9584,6237 9634,6323 9660,6420 9660,6519 9660,6521 9660,6524 9660,6527 9656,6838 9392,7085 9080,7085 L 8934,7085 8933,7085 8933,7777 8934,7777 9227,7777 C 9932,7777 10527,7201 10522,6497 L 10522,6497 C 10520,6277 10462,6062 10352,5871 10240,5678 10080,5517 9886,5406 9693,5294 9474,5235 9251,5235 L 2908,5235 2908,5235 2908,5235 C 2885,5235 2862,5242 2841,5253 2821,5265 2804,5282 2792,5302 2781,5323 2774,5346 2774,5369 L 2774,5820 2774,5820 C 2774,5844 2781,5867 2792,5887 2804,5908 2821,5924 2841,5936 2862,5948 2885,5954 2908,5954 L 2908,5954 9094,5954 9094,5954 C 9094,5954 9094,5954 9095,5954 9194,5954 9291,5980 9376,6030 9419,6055 9459,6085 9494,6120 L 9494,6120 9494,6120 Z"/>
        <path fill="none" stroke="rgb(0,0,0)" stroke-width="181" stroke-linejoin="miter" d="M 9494,6120 L 9494,6120 C 9529,6155 9559,6195 9584,6237 9634,6323 9660,6420 9660,6519 L 9660,6527 C 9656,6838 9392,7085 9080,7085 L 8934,7085 8933,7085 8933,7777 8934,7777 9227,7777 C 9932,7777 10527,7201 10522,6497 L 10522,6497 C 10520,6277 10462,6062 10352,5871 10240,5678 10080,5517 9886,5406 9693,5294 9474,5235 9251,5235 L 2908,5235 2908,5235 2908,5235 C 2885,5235 2862,5242 2841,5253 2821,5265 2804,5282 2792,5302 2781,5323 2774,5346 2774,5369 L 2774,5820 2774,5820 C 2774,5844 2781,5867 2792,5887 2804,5908 2821,5924 2841,5936 2862,5948 2885,5954 2908,5954 L 2908,5954 9094,5954 9094,5954 9095,5954 C 9194,5954 9291,5980 9376,6030 9419,6055 9459,6085 9494,6120 Z"/>
        <path fill="rgb(16,41,119)" stroke="none" d="M 7956,7777 L 8707,7777 8331,7288 7956,7777 7956,7777 7956,7777 Z"/>
        <path fill="none" stroke="rgb(0,0,0)" stroke-width="181" stroke-linejoin="miter" d="M 7956,7777 L 8707,7777 8331,7288 7956,7777 7956,7777 7956,7777 Z"/>
        <path fill="rgb(16,41,119)" stroke="none" d="M 2774,7180 L 2774,7645 2774,7645 C 2774,7668 2780,7691 2792,7711 2804,7731 2820,7748 2840,7759 2861,7771 2883,7777 2907,7777 L 7730,7777 7730,7085 2870,7085 2870,7085 C 2853,7085 2837,7089 2822,7098 2808,7106 2796,7118 2787,7133 2779,7147 2774,7164 2774,7180 L 2774,7180 2774,7180 2774,7180 Z"/>
        <path fill="none" stroke="rgb(0,0,0)" stroke-width="181" stroke-linejoin="miter" d="M 2774,7180 L 2774,7645 2774,7645 C 2774,7668 2780,7691 2792,7711 2804,7731 2820,7748 2840,7759 2861,7771 2883,7777 2907,7777 L 7730,7777 7730,7085 2870,7085 2870,7085 C 2853,7085 2837,7089 2822,7098 2808,7106 2796,7118 2787,7133 2779,7147 2774,7164 2774,7180 Z"/>
        <path fill="rgb(216,80,54)" stroke="none" d="M 7730,6507 L 7730,7777 7956,7777 8331,7288 8707,7777 8933,7777 8933,6507 7730,6507 7730,6507 7730,6507 Z"/>
        <path fill="none" stroke="rgb(0,0,0)" stroke-width="181" stroke-linejoin="miter" d="M 7730,6507 L 7730,7777 7956,7777 8331,7288 8707,7777 8933,7777 8933,6507 7730,6507 7730,6507 7730,6507 Z"/>
        <path fill="rgb(255,255,255)" stroke="none" d="M 3108,5954 L 3108,7085 7824,7085 7824,6508 8968,6508 8968,7086 9121,7086 C 9419,7086 9660,6833 9660,6521 L 9660,6521 C 9660,6521 9660,6520 9660,6519 9660,6418 9633,6318 9582,6230 9559,6191 9532,6154 9501,6121 L 9501,6121 C 9466,6084 9425,6052 9381,6026 9301,5980 9212,5956 9120,5956 L 3108,5954 3108,5954 Z"/>
        <path fill="none" stroke="rgb(0,0,0)" stroke-width="181" stroke-linejoin="miter" d="M 3108,5954 L 3108,7085 7824,7085 7824,6508 8968,6508 8968,7086 9121,7086 C 9419,7086 9660,6833 9660,6521 L 9660,6521 9660,6519 C 9660,6418 9633,6318 9582,6230 9559,6191 9532,6154 9501,6121 L 9501,6121 C 9466,6084 9425,6052 9381,6026 9301,5980 9212,5956 9120,5956 L 3108,5954 Z"/>
        <path fill="rgb(216,203,202)" stroke="none" d="M 7730,6507 L 8933,6507 8933,7085 7730,7085 7730,6507 7730,6507 Z"/>
        <path fill="none" stroke="rgb(0,0,0)" stroke-width="181" stroke-linejoin="miter" d="M 7730,6507 L 8933,6507 8933,7085 7730,7085 7730,6507 7730,6507 Z"/>
        <path fill="rgb(0,8,76)" stroke="none" d="M 3538,8707 L 3538,8707 C 3503,8742 3473,8781 3448,8824 3398,8910 3372,9007 3372,9106 3372,9109 3372,9111 3372,9114 3376,9426 3640,9673 3952,9673 L 4098,9673 4098,10363 3805,10363 C 3100,10363 2505,9786 2510,9082 L 2510,9082 C 2511,8862 2570,8646 2680,8456 2792,8262 2952,8102 3145,7990 3338,7879 3557,7820 3780,7820 L 10124,7820 10124,7820 10124,7820 C 10147,7820 10170,7826 10191,7838 10211,7850 10228,7867 10240,7887 10251,7907 10258,7930 10258,7954 L 10258,7954 10258,8405 10258,8405 C 10258,8429 10251,8452 10240,8472 10228,8493 10211,8509 10191,8521 10170,8533 10147,8539 10124,8539 L 10124,8539 3938,8539 3938,8539 C 3839,8539 3743,8565 3657,8615 3614,8640 3573,8671 3538,8707 L 3538,8707 3538,8707 Z"/>
        <path fill="none" stroke="rgb(0,0,0)" stroke-width="181" stroke-linejoin="miter" d="M 3538,8707 L 3538,8707 C 3503,8742 3473,8781 3448,8824 3398,8910 3372,9007 3372,9106 L 3372,9114 C 3376,9426 3640,9673 3952,9673 L 4098,9673 4098,10363 3805,10363 C 3100,10363 2505,9786 2510,9082 L 2510,9082 C 2511,8862 2570,8646 2680,8456 2792,8262 2952,8102 3145,7990 3338,7879 3557,7820 3780,7820 L 10124,7820 10124,7820 10124,7820 C 10147,7820 10170,7826 10191,7838 10211,7850 10228,7867 10240,7887 10251,7907 10258,7930 10258,7954 L 10258,7954 10258,8405 10258,8405 C 10258,8429 10251,8452 10240,8472 10228,8493 10211,8509 10191,8521 10170,8533 10147,8539 10124,8539 L 10124,8539 3938,8539 3938,8539 C 3839,8539 3743,8565 3657,8615 3614,8640 3573,8671 3538,8707 Z"/>
        <path fill="rgb(0,8,76)" stroke="none" d="M 10258,9768 L 10258,10233 10258,10233 C 10258,10256 10251,10279 10240,10299 10228,10319 10211,10336 10191,10347 10171,10359 10148,10365 10125,10365 L 5302,10365 5302,9673 10162,9673 10162,9673 10162,9673 C 10179,9673 10195,9677 10210,9685 10224,9694 10236,9706 10245,9720 10253,9735 10258,9751 10258,9768 L 10258,9768 10258,9768 10258,9768 Z"/>
        <path fill="none" stroke="rgb(0,0,0)" stroke-width="181" stroke-linejoin="miter" d="M 10258,9768 L 10258,10233 10258,10233 C 10258,10256 10251,10279 10240,10299 10228,10319 10211,10336 10191,10347 10171,10359 10148,10365 10125,10365 L 5302,10365 5302,9673 10162,9673 10162,9673 10162,9673 C 10179,9673 10195,9677 10210,9685 10224,9694 10236,9706 10245,9720 10253,9735 10258,9751 10258,9768 Z"/>
        <path fill="rgb(216,80,54)" stroke="none" d="M 5302,9094 L 5302,10365 5076,10365 4700,9876 4325,10365 4099,10365 4099,9094 5302,9094 5302,9094 5302,9094 Z"/>
        <path fill="none" stroke="rgb(0,0,0)" stroke-width="181" stroke-linejoin="miter" d="M 5302,9094 L 5302,10365 5076,10365 4700,9876 4325,10365 4099,10365 4099,9094 5302,9094 5302,9094 5302,9094 Z"/>
        <path fill="rgb(255,255,255)" stroke="none" d="M 9924,8541 L 9924,9673 5208,9673 5208,9094 4064,9094 4064,9673 3911,9673 C 3613,9673 3372,9419 3372,9107 L 3372,9107 C 3372,9106 3372,9106 3372,9105 3372,9003 3399,8904 3450,8816 3472,8776 3500,8740 3531,8707 L 3531,8707 C 3566,8669 3607,8637 3651,8611 3731,8566 3820,8541 3912,8541 L 9924,8541 9924,8541 Z"/>
        <path fill="none" stroke="rgb(0,0,0)" stroke-width="181" stroke-linejoin="miter" d="M 9924,8541 L 9924,9673 5208,9673 5208,9094 4064,9094 4064,9673 3911,9673 C 3613,9673 3372,9419 3372,9107 L 3372,9107 3372,9105 C 3372,9003 3399,8904 3450,8816 3472,8776 3500,8740 3531,8707 L 3531,8707 C 3566,8669 3607,8637 3651,8611 3731,8566 3820,8541 3912,8541 L 9924,8541 Z"/>
        <path fill="rgb(216,203,202)" stroke="none" d="M 4099,9094 L 5302,9094 5302,9673 4099,9673 4099,9094 4099,9094 Z"/>
        <path fill="none" stroke="rgb(0,0,0)" stroke-width="181" stroke-linejoin="miter" d="M 4099,9094 L 5302,9094 5302,9673 4099,9673 4099,9094 4099,9094 Z"/>
        <path fill="rgb(251,137,0)" stroke="none" d="M 5302,9094 L 5302,10659 5076,10365 4700,9876 4325,10365 4099,10659 4099,9094 5302,9094 5302,9094 5302,9094 Z"/>
        <path fill="none" stroke="rgb(0,0,0)" stroke-width="181" stroke-linejoin="round" stroke-linecap="round" d="M 5302,9094 L 5302,10659 5076,10365 4700,9876 4325,10365 4099,10659 4099,9094 5302,9094 5302,9094 5302,9094 Z"/>
        <path fill="rgb(251,137,0)" stroke="none" d="M 7730,6507 L 7730,8071 7956,7777 8331,7288 8707,7777 8933,8071 8933,6507 7730,6507 7730,6507 7730,6507 Z"/>
        <path fill="none" stroke="rgb(0,0,0)" stroke-width="181" stroke-linejoin="round" stroke-linecap="round" d="M 7730,6507 L 7730,8071 7956,7777 8331,7288 8707,7777 8933,8071 8933,6507 7730,6507 7730,6507 7730,6507 Z"/>
        <path fill="rgb(251,137,0)" stroke="none" d="M 5302,3893 L 5302,5458 5076,5164 4700,4675 4325,5164 4099,5458 4099,3893 5302,3893 5302,3893 5302,3893 Z"/>
        <path fill="none" stroke="rgb(0,0,0)" stroke-width="181" stroke-linejoin="round" stroke-linecap="round" d="M 5302,3893 L 5302,5458 5076,5164 4700,4675 4325,5164 4099,5458 4099,3893 5302,3893 5302,3893 5302,3893 Z"/>
       </g>
      </g>
     </g>
    </g>
   </g>
  </g>
 </g>
</svg>