<?xml version="1.0" encoding="UTF-8"?>
<!DOCTYPE svg PUBLIC "-//W3C//DTD SVG 1.1//EN" "http://www.w3.org/Graphics/SVG/1.1/DTD/svg11.dtd">
<svg version="1.2" width="32.27mm" height="32.27mm" viewBox="0 0 3227 3227" preserveAspectRatio="xMidYMid" fill-rule="evenodd" stroke-width="28.222" stroke-linejoin="round" xmlns="http://www.w3.org/2000/svg" xmlns:ooo="http://xml.openoffice.org/svg/export" xmlns:xlink="http://www.w3.org/1999/xlink" xmlns:presentation="http://sun.com/xmlns/staroffice/presentation" xmlns:smil="http://www.w3.org/2001/SMIL20/" xmlns:anim="urn:oasis:names:tc:opendocument:xmlns:animation:1.0" xmlns:svg="urn:oasis:names:tc:opendocument:xmlns:svg-compatible:1.0" xml:space="preserve">
 <defs class="ClipPathGroup">
  <clipPath id="presentation_clip_path" clipPathUnits="userSpaceOnUse">
   <rect x="0" y="0" width="3227" height="3227"/>
  </clipPath>
  <clipPath id="presentation_clip_path_shrink" clipPathUnits="userSpaceOnUse">
   <rect x="3" y="3" width="3221" height="3221"/>
  </clipPath>
 </defs>
 <defs class="TextShapeIndex">
  <g ooo:slide="id1" ooo:id-list="id3"/>
 </defs>
 <defs class="EmbeddedBulletChars">
  <g id="bullet-char-template-57356" transform="scale(0.00048828125,-0.00048828125)">
   <path d="M 580,1141 L 1163,571 580,0 -4,571 580,1141 Z"/>
  </g>
  <g id="bullet-char-template-57354" transform="scale(0.00048828125,-0.00048828125)">
   <path d="M 8,1128 L 1137,1128 1137,0 8,0 8,1128 Z"/>
  </g>
  <g id="bullet-char-template-10146" transform="scale(0.00048828125,-0.00048828125)">
   <path d="M 174,0 L 602,739 174,1481 1456,739 174,0 Z M 1358,739 L 309,1346 659,739 1358,739 Z"/>
  </g>
  <g id="bullet-char-template-10132" transform="scale(0.00048828125,-0.00048828125)">
   <path d="M 2015,739 L 1276,0 717,0 1260,543 174,543 174,936 1260,936 717,1481 1274,1481 2015,739 Z"/>
  </g>
  <g id="bullet-char-template-10007" transform="scale(0.00048828125,-0.00048828125)">
   <path d="M 0,-2 C -7,14 -16,27 -25,37 L 356,567 C 262,823 215,952 215,954 215,979 228,992 255,992 264,992 276,990 289,987 310,991 331,999 354,1012 L 381,999 492,748 772,1049 836,1024 860,1049 C 881,1039 901,1025 922,1006 886,937 835,863 770,784 769,783 710,716 594,584 L 774,223 C 774,196 753,168 711,139 L 727,119 C 717,90 699,76 672,76 641,76 570,178 457,381 L 164,-76 C 142,-110 111,-127 72,-127 30,-127 9,-110 8,-76 1,-67 -2,-52 -2,-32 -2,-23 -1,-13 0,-2 Z"/>
  </g>
  <g id="bullet-char-template-10004" transform="scale(0.00048828125,-0.00048828125)">
   <path d="M 285,-33 C 182,-33 111,30 74,156 52,228 41,333 41,471 41,549 55,616 82,672 116,743 169,778 240,778 293,778 328,747 346,684 L 369,508 C 377,444 397,411 428,410 L 1163,1116 C 1174,1127 1196,1133 1229,1133 1271,1133 1292,1118 1292,1087 L 1292,965 C 1292,929 1282,901 1262,881 L 442,47 C 390,-6 338,-33 285,-33 Z"/>
  </g>
  <g id="bullet-char-template-9679" transform="scale(0.00048828125,-0.00048828125)">
   <path d="M 813,0 C 632,0 489,54 383,161 276,268 223,411 223,592 223,773 276,916 383,1023 489,1130 632,1184 813,1184 992,1184 1136,1130 1245,1023 1353,916 1407,772 1407,592 1407,412 1353,268 1245,161 1136,54 992,0 813,0 Z"/>
  </g>
  <g id="bullet-char-template-8226" transform="scale(0.00048828125,-0.00048828125)">
   <path d="M 346,457 C 273,457 209,483 155,535 101,586 74,649 74,723 74,796 101,859 155,911 209,963 273,989 346,989 419,989 480,963 531,910 582,859 608,796 608,723 608,648 583,586 532,535 482,483 420,457 346,457 Z"/>
  </g>
  <g id="bullet-char-template-8211" transform="scale(0.00048828125,-0.00048828125)">
   <path d="M -4,459 L 1135,459 1135,606 -4,606 -4,459 Z"/>
  </g>
  <g id="bullet-char-template-61548" transform="scale(0.00048828125,-0.00048828125)">
   <path d="M 173,740 C 173,903 231,1043 346,1159 462,1274 601,1332 765,1332 928,1332 1067,1274 1183,1159 1299,1043 1357,903 1357,740 1357,577 1299,437 1183,322 1067,206 928,148 765,148 601,148 462,206 346,322 231,437 173,577 173,740 Z"/>
  </g>
 </defs>
 <g>
  <g id="id2" class="Master_Slide">
   <g id="bg-id2" class="Background"/>
   <g id="bo-id2" class="BackgroundObjects"/>
  </g>
 </g>
 <g class="SlideGroup">
  <g>
   <g id="container-id1">
    <g id="id1" class="Slide" clip-path="url(#presentation_clip_path)">
     <g class="Page">
      <g class="Graphic">
       <g id="id3">
        <rect class="BoundingBox" stroke="none" fill="none" x="-142" y="-142" width="3512" height="3512"/>
        <path fill="rgb(58,176,255)" stroke="none" d="M 2735,693 L 491,693 C 418,693 362,750 362,822 L 362,2068 C 362,2139 418,2197 491,2197 L 1359,2197 1576,2516 C 1592,2542 1634,2542 1650,2516 L 1866,2197 2735,2197 C 2807,2197 2864,2139 2864,2068 L 2864,822 C 2864,750 2807,693 2735,693 L 2735,693 2735,693 Z"/>
        <path fill="rgb(255,255,255)" stroke="none" d="M 618,1515 L 799,1515 C 819,1515 836,1498 836,1478 836,1457 819,1440 799,1440 L 618,1440 C 597,1440 581,1457 581,1478 581,1498 597,1515 618,1515 L 618,1515 618,1515 Z"/>
        <path fill="rgb(255,255,255)" stroke="none" d="M 940,1515 L 2608,1515 C 2629,1515 2645,1498 2645,1478 2645,1457 2629,1440 2608,1440 L 940,1440 C 920,1440 903,1457 903,1478 903,1498 920,1515 940,1515 L 940,1515 940,1515 Z"/>
        <path fill="rgb(255,255,255)" stroke="none" d="M 2608,1590 L 618,1590 C 597,1590 581,1608 581,1627 581,1648 597,1665 618,1665 L 2608,1665 C 2629,1665 2645,1648 2645,1627 2645,1608 2629,1590 2608,1590 L 2608,1590 2608,1590 Z"/>
        <path fill="rgb(255,255,255)" stroke="none" d="M 2608,1739 L 618,1739 C 597,1739 581,1757 581,1777 581,1797 597,1814 618,1814 L 2608,1814 C 2629,1814 2645,1797 2645,1777 2645,1757 2629,1739 2608,1739 L 2608,1739 2608,1739 Z"/>
        <path fill="rgb(255,255,255)" stroke="none" d="M 2608,1889 L 618,1889 C 597,1889 581,1907 581,1926 581,1947 597,1964 618,1964 L 2608,1964 C 2629,1964 2645,1947 2645,1926 2645,1907 2629,1889 2608,1889 L 2608,1889 2608,1889 Z"/>
        <path fill="rgb(255,178,37)" stroke="none" d="M 931,1098 C 931,1129 923,1159 908,1185 892,1213 870,1234 844,1250 817,1265 786,1274 756,1274 725,1274 695,1265 668,1250 642,1234 619,1213 603,1185 588,1159 581,1129 581,1098 581,1067 588,1036 603,1010 619,983 642,961 668,946 695,931 725,922 756,922 786,922 817,931 844,946 870,961 892,983 908,1010 923,1036 931,1067 931,1098 L 931,1098 931,1098 Z"/>
        <path fill="rgb(255,214,62)" stroke="none" d="M 1279,1067 L 1210,1058 1179,994 C 1176,989 1170,989 1167,994 L 1135,1058 1064,1067 C 1058,1067 1055,1074 1060,1078 L 1113,1127 1101,1198 C 1101,1204 1107,1207 1109,1207 L 1172,1172 1237,1207 C 1242,1210 1247,1204 1244,1198 L 1233,1127 1286,1078 C 1288,1074 1286,1069 1279,1067 L 1279,1067 1279,1067 Z"/>
        <path fill="rgb(255,214,62)" stroke="none" d="M 1581,1067 L 1510,1055 1478,992 C 1475,985 1469,985 1466,992 L 1435,1055 1363,1067 C 1357,1067 1354,1074 1359,1078 L 1412,1127 1400,1198 C 1400,1204 1406,1207 1408,1207 L 1472,1172 1536,1207 C 1541,1210 1547,1204 1544,1198 L 1532,1127 1585,1078 C 1587,1074 1587,1069 1581,1067 L 1581,1067 1581,1067 Z"/>
        <path fill="rgb(255,214,62)" stroke="none" d="M 1881,1067 L 1809,1055 1777,992 C 1774,985 1769,985 1765,992 L 1734,1055 1662,1067 C 1656,1067 1653,1074 1659,1078 L 1711,1127 1699,1198 C 1699,1204 1705,1207 1708,1207 L 1771,1172 1835,1207 C 1840,1210 1846,1204 1844,1198 L 1832,1127 1884,1078 C 1889,1074 1886,1069 1881,1067 L 1881,1067 1881,1067 Z"/>
        <path fill="rgb(255,214,62)" stroke="none" d="M 2180,1067 L 2108,1055 2076,992 C 2073,985 2068,985 2064,992 L 2033,1055 1961,1067 C 1956,1067 1952,1074 1958,1078 L 2010,1127 1998,1198 C 1998,1204 2005,1207 2007,1207 L 2070,1172 2134,1207 C 2139,1210 2145,1204 2143,1198 L 2131,1127 2183,1078 C 2188,1074 2185,1069 2180,1067 L 2180,1067 2180,1067 Z"/>
        <path fill="rgb(255,214,62)" stroke="none" d="M 2482,1067 L 2410,1055 2378,992 C 2376,985 2370,985 2367,992 L 2332,1058 2263,1067 C 2257,1067 2255,1074 2260,1078 L 2312,1127 2300,1198 C 2300,1204 2306,1207 2309,1207 L 2372,1172 2435,1207 C 2442,1210 2447,1204 2444,1198 L 2433,1127 2484,1078 C 2488,1074 2488,1069 2482,1067 L 2482,1067 2482,1067 Z"/>
       </g>
      </g>
     </g>
    </g>
   </g>
  </g>
 </g>
</svg>