<?xml version="1.0" encoding="UTF-8"?>
<!DOCTYPE svg PUBLIC "-//W3C//DTD SVG 1.1//EN" "http://www.w3.org/Graphics/SVG/1.1/DTD/svg11.dtd">
<svg version="1.2" width="132.56mm" height="132.56mm" viewBox="0 0 13256 13256" preserveAspectRatio="xMidYMid" fill-rule="evenodd" stroke-width="28.222" stroke-linejoin="round" xmlns="http://www.w3.org/2000/svg" xmlns:ooo="http://xml.openoffice.org/svg/export" xmlns:xlink="http://www.w3.org/1999/xlink" xmlns:presentation="http://sun.com/xmlns/staroffice/presentation" xmlns:smil="http://www.w3.org/2001/SMIL20/" xmlns:anim="urn:oasis:names:tc:opendocument:xmlns:animation:1.0" xmlns:svg="urn:oasis:names:tc:opendocument:xmlns:svg-compatible:1.0" xml:space="preserve">
 <defs class="ClipPathGroup">
  <clipPath id="presentation_clip_path" clipPathUnits="userSpaceOnUse">
   <rect x="0" y="0" width="13256" height="13256"/>
  </clipPath>
  <clipPath id="presentation_clip_path_shrink" clipPathUnits="userSpaceOnUse">
   <rect x="13" y="13" width="13230" height="13230"/>
  </clipPath>
 </defs>
 <defs class="TextShapeIndex">
  <g ooo:slide="id1" ooo:id-list="id3"/>
 </defs>
 <defs class="EmbeddedBulletChars">
  <g id="bullet-char-template-57356" transform="scale(0.00048828125,-0.00048828125)">
   <path d="M 580,1141 L 1163,571 580,0 -4,571 580,1141 Z"/>
  </g>
  <g id="bullet-char-template-57354" transform="scale(0.00048828125,-0.00048828125)">
   <path d="M 8,1128 L 1137,1128 1137,0 8,0 8,1128 Z"/>
  </g>
  <g id="bullet-char-template-10146" transform="scale(0.00048828125,-0.00048828125)">
   <path d="M 174,0 L 602,739 174,1481 1456,739 174,0 Z M 1358,739 L 309,1346 659,739 1358,739 Z"/>
  </g>
  <g id="bullet-char-template-10132" transform="scale(0.00048828125,-0.00048828125)">
   <path d="M 2015,739 L 1276,0 717,0 1260,543 174,543 174,936 1260,936 717,1481 1274,1481 2015,739 Z"/>
  </g>
  <g id="bullet-char-template-10007" transform="scale(0.00048828125,-0.00048828125)">
   <path d="M 0,-2 C -7,14 -16,27 -25,37 L 356,567 C 262,823 215,952 215,954 215,979 228,992 255,992 264,992 276,990 289,987 310,991 331,999 354,1012 L 381,999 492,748 772,1049 836,1024 860,1049 C 881,1039 901,1025 922,1006 886,937 835,863 770,784 769,783 710,716 594,584 L 774,223 C 774,196 753,168 711,139 L 727,119 C 717,90 699,76 672,76 641,76 570,178 457,381 L 164,-76 C 142,-110 111,-127 72,-127 30,-127 9,-110 8,-76 1,-67 -2,-52 -2,-32 -2,-23 -1,-13 0,-2 Z"/>
  </g>
  <g id="bullet-char-template-10004" transform="scale(0.00048828125,-0.00048828125)">
   <path d="M 285,-33 C 182,-33 111,30 74,156 52,228 41,333 41,471 41,549 55,616 82,672 116,743 169,778 240,778 293,778 328,747 346,684 L 369,508 C 377,444 397,411 428,410 L 1163,1116 C 1174,1127 1196,1133 1229,1133 1271,1133 1292,1118 1292,1087 L 1292,965 C 1292,929 1282,901 1262,881 L 442,47 C 390,-6 338,-33 285,-33 Z"/>
  </g>
  <g id="bullet-char-template-9679" transform="scale(0.00048828125,-0.00048828125)">
   <path d="M 813,0 C 632,0 489,54 383,161 276,268 223,411 223,592 223,773 276,916 383,1023 489,1130 632,1184 813,1184 992,1184 1136,1130 1245,1023 1353,916 1407,772 1407,592 1407,412 1353,268 1245,161 1136,54 992,0 813,0 Z"/>
  </g>
  <g id="bullet-char-template-8226" transform="scale(0.00048828125,-0.00048828125)">
   <path d="M 346,457 C 273,457 209,483 155,535 101,586 74,649 74,723 74,796 101,859 155,911 209,963 273,989 346,989 419,989 480,963 531,910 582,859 608,796 608,723 608,648 583,586 532,535 482,483 420,457 346,457 Z"/>
  </g>
  <g id="bullet-char-template-8211" transform="scale(0.00048828125,-0.00048828125)">
   <path d="M -4,459 L 1135,459 1135,606 -4,606 -4,459 Z"/>
  </g>
  <g id="bullet-char-template-61548" transform="scale(0.00048828125,-0.00048828125)">
   <path d="M 173,740 C 173,903 231,1043 346,1159 462,1274 601,1332 765,1332 928,1332 1067,1274 1183,1159 1299,1043 1357,903 1357,740 1357,577 1299,437 1183,322 1067,206 928,148 765,148 601,148 462,206 346,322 231,437 173,577 173,740 Z"/>
  </g>
 </defs>
 <g>
  <g id="id2" class="Master_Slide">
   <g id="bg-id2" class="Background"/>
   <g id="bo-id2" class="BackgroundObjects"/>
  </g>
 </g>
 <g class="SlideGroup">
  <g>
   <g id="container-id1">
    <g id="id1" class="Slide" clip-path="url(#presentation_clip_path)">
     <g class="Page">
      <g class="Graphic">
       <g id="id3">
        <rect class="BoundingBox" stroke="none" fill="none" x="0" y="0" width="13256" height="13256"/>
        <defs>
         <clipPath id="clip_path_1" clipPathUnits="userSpaceOnUse">
          <path d="M 12580,6628 C 12580,7672 12305,8699 11783,9604 11260,10509 10509,11260 9604,11783 8699,12305 7672,12580 6628,12580 5583,12580 4556,12305 3651,11783 2746,11260 1995,10509 1472,9604 950,8699 675,7672 675,6628 675,5583 950,4556 1472,3651 1995,2746 2746,1995 3651,1472 4556,950 5583,675 6627,675 7672,675 8699,950 9604,1472 10509,1995 11260,2746 11783,3651 12305,4556 12580,5583 12580,6627 L 12580,6628 Z"/>
         </clipPath>
        </defs>
        <g clip-path="url(#clip_path_1)">
         <path fill="rgb(23,162,255)" stroke="none" d="M 12582,648 L 12582,926 673,926 673,648 12582,648 Z"/>
         <path fill="rgb(23,161,254)" stroke="none" d="M 12582,873 L 12582,1150 673,1150 673,873 12582,873 Z"/>
         <path fill="rgb(22,161,254)" stroke="none" d="M 12582,1097 L 12582,1375 673,1375 673,1097 12582,1097 Z"/>
         <path fill="rgb(22,160,253)" stroke="none" d="M 12582,1322 L 12582,1600 673,1600 673,1322 12582,1322 Z"/>
         <path fill="rgb(21,160,252)" stroke="none" d="M 12582,1547 L 12582,1824 673,1824 673,1547 12582,1547 Z"/>
         <path fill="rgb(21,159,252)" stroke="none" d="M 12582,1771 L 12582,2049 673,2049 673,1771 12582,1771 Z"/>
         <path fill="rgb(20,158,251)" stroke="none" d="M 12582,1996 L 12582,2274 673,2274 673,1996 12582,1996 Z"/>
         <path fill="rgb(20,158,250)" stroke="none" d="M 12582,2221 L 12582,2498 673,2498 673,2221 12582,2221 Z"/>
         <path fill="rgb(20,157,250)" stroke="none" d="M 12582,2445 L 12582,2723 673,2723 673,2445 12582,2445 Z"/>
         <path fill="rgb(19,157,249)" stroke="none" d="M 12582,2670 L 12582,2947 673,2947 673,2670 12582,2670 Z"/>
         <path fill="rgb(19,156,248)" stroke="none" d="M 12582,2895 L 12582,3172 673,3172 673,2895 12582,2895 Z"/>
         <path fill="rgb(18,156,248)" stroke="none" d="M 12582,3119 L 12582,3397 673,3397 673,3119 12582,3119 Z"/>
         <path fill="rgb(18,155,247)" stroke="none" d="M 12582,3344 L 12582,3621 673,3621 673,3344 12582,3344 Z"/>
         <path fill="rgb(17,154,246)" stroke="none" d="M 12582,3568 L 12582,3846 673,3846 673,3568 12582,3568 Z"/>
         <path fill="rgb(17,154,245)" stroke="none" d="M 12582,3793 L 12582,4071 673,4071 673,3793 12582,3793 Z"/>
         <path fill="rgb(16,153,245)" stroke="none" d="M 12582,4018 L 12582,4295 673,4295 673,4018 12582,4018 Z"/>
         <path fill="rgb(16,153,244)" stroke="none" d="M 12582,4242 L 12582,4520 673,4520 673,4242 12582,4242 Z"/>
         <path fill="rgb(16,152,243)" stroke="none" d="M 12582,4467 L 12582,4745 673,4745 673,4467 12582,4467 Z"/>
         <path fill="rgb(15,151,243)" stroke="none" d="M 12582,4692 L 12582,4969 673,4969 673,4692 12582,4692 Z"/>
         <path fill="rgb(15,151,242)" stroke="none" d="M 12582,4916 L 12582,5194 673,5194 673,4916 12582,4916 Z"/>
         <path fill="rgb(14,150,241)" stroke="none" d="M 12582,5141 L 12582,5418 673,5418 673,5141 12582,5141 Z"/>
         <path fill="rgb(14,150,241)" stroke="none" d="M 12582,5366 L 12582,5643 673,5643 673,5366 12582,5366 Z"/>
         <path fill="rgb(13,149,240)" stroke="none" d="M 12582,5590 L 12582,5868 673,5868 673,5590 12582,5590 Z"/>
         <path fill="rgb(13,149,239)" stroke="none" d="M 12582,5815 L 12582,6092 673,6092 673,5815 12582,5815 Z"/>
         <path fill="rgb(13,148,239)" stroke="none" d="M 12582,6039 L 12582,6317 673,6317 673,6039 12582,6039 Z"/>
         <path fill="rgb(12,147,238)" stroke="none" d="M 12582,6264 L 12582,6542 673,6542 673,6264 12582,6264 Z"/>
         <path fill="rgb(12,147,237)" stroke="none" d="M 12582,6489 L 12582,6766 673,6766 673,6489 12582,6489 Z"/>
         <path fill="rgb(11,146,237)" stroke="none" d="M 12582,6713 L 12582,6991 673,6991 673,6713 12582,6713 Z"/>
         <path fill="rgb(11,146,236)" stroke="none" d="M 12582,6938 L 12582,7216 673,7216 673,6938 12582,6938 Z"/>
         <path fill="rgb(10,145,235)" stroke="none" d="M 12582,7163 L 12582,7440 673,7440 673,7163 12582,7163 Z"/>
         <path fill="rgb(10,144,235)" stroke="none" d="M 12582,7387 L 12582,7665 673,7665 673,7387 12582,7387 Z"/>
         <path fill="rgb(10,144,234)" stroke="none" d="M 12582,7612 L 12582,7889 673,7889 673,7612 12582,7612 Z"/>
         <path fill="rgb(9,143,233)" stroke="none" d="M 12582,7837 L 12582,8114 673,8114 673,7837 12582,7837 Z"/>
         <path fill="rgb(9,143,233)" stroke="none" d="M 12582,8061 L 12582,8339 673,8339 673,8061 12582,8061 Z"/>
         <path fill="rgb(8,142,232)" stroke="none" d="M 12582,8286 L 12582,8563 673,8563 673,8286 12582,8286 Z"/>
         <path fill="rgb(8,142,231)" stroke="none" d="M 12582,8510 L 12582,8788 673,8788 673,8510 12582,8510 Z"/>
         <path fill="rgb(7,141,231)" stroke="none" d="M 12582,8735 L 12582,9013 673,9013 673,8735 12582,8735 Z"/>
         <path fill="rgb(7,140,230)" stroke="none" d="M 12582,8960 L 12582,9237 673,9237 673,8960 12582,8960 Z"/>
         <path fill="rgb(7,140,229)" stroke="none" d="M 12582,9184 L 12582,9462 673,9462 673,9184 12582,9184 Z"/>
         <path fill="rgb(6,139,229)" stroke="none" d="M 12582,9409 L 12582,9687 673,9687 673,9409 12582,9409 Z"/>
         <path fill="rgb(6,139,228)" stroke="none" d="M 12582,9634 L 12582,9911 673,9911 673,9634 12582,9634 Z"/>
         <path fill="rgb(5,138,227)" stroke="none" d="M 12582,9858 L 12582,10136 673,10136 673,9858 12582,9858 Z"/>
         <path fill="rgb(5,137,226)" stroke="none" d="M 12582,10083 L 12582,10360 673,10360 673,10083 12582,10083 Z"/>
         <path fill="rgb(4,137,226)" stroke="none" d="M 12582,10308 L 12582,10585 673,10585 673,10308 12582,10308 Z"/>
         <path fill="rgb(4,136,225)" stroke="none" d="M 12582,10532 L 12582,10810 673,10810 673,10532 12582,10532 Z"/>
         <path fill="rgb(3,136,224)" stroke="none" d="M 12582,10757 L 12582,11034 673,11034 673,10757 12582,10757 Z"/>
         <path fill="rgb(3,135,224)" stroke="none" d="M 12582,10981 L 12582,11259 673,11259 673,10981 12582,10981 Z"/>
         <path fill="rgb(3,135,223)" stroke="none" d="M 12582,11206 L 12582,11484 673,11484 673,11206 12582,11206 Z"/>
         <path fill="rgb(2,134,222)" stroke="none" d="M 12582,11431 L 12582,11708 673,11708 673,11431 12582,11431 Z"/>
         <path fill="rgb(2,133,222)" stroke="none" d="M 12582,11655 L 12582,11933 673,11933 673,11655 12582,11655 Z"/>
         <path fill="rgb(1,133,221)" stroke="none" d="M 12582,11880 L 12582,12158 673,12158 673,11880 12582,11880 Z"/>
         <path fill="rgb(1,132,220)" stroke="none" d="M 12582,12105 L 12582,12382 673,12382 673,12105 12582,12105 Z"/>
         <path fill="rgb(0,132,220)" stroke="none" d="M 12582,12329 L 12582,12607 673,12607 673,12329 12582,12329 Z"/>
        </g>
        <path fill="none" stroke="rgb(48,48,48)" stroke-width="265" stroke-linejoin="miter" d="M 12580,6628 C 12580,7672 12305,8699 11783,9604 11260,10509 10509,11260 9604,11783 8699,12305 7672,12580 6628,12580 5583,12580 4556,12305 3651,11783 2746,11260 1995,10509 1472,9604 950,8699 675,7672 675,6628 675,5583 950,4556 1472,3651 1995,2746 2746,1995 3651,1472 4556,950 5583,675 6627,675 7672,675 8699,950 9604,1472 10509,1995 11260,2746 11783,3651 12305,4556 12580,5583 12580,6627 L 12580,6628 Z"/>
        <defs>
         <clipPath id="clip_path_2" clipPathUnits="userSpaceOnUse">
          <path d="M 6495,2262 C 7024,2262 7474,2712 7474,3241 7474,3770 7024,4193 6495,4193 5966,4193 5543,3770 5543,3241 5543,2712 5966,2262 6495,2262 L 6495,2262 Z M 4961,10490 C 5516,10490 5887,10384 5887,9723 L 5887,6072 C 5887,5437 5516,5305 4961,5305 L 4908,5305 4908,4802 7368,4802 7368,9670 C 7368,10331 7712,10490 8294,10490 L 8453,10490 8453,10993 4802,10993 4802,10490 4961,10490 4961,10490 Z"/>
         </clipPath>
        </defs>
        <g clip-path="url(#clip_path_2)">
         <path fill="rgb(216,216,216)" stroke="none" d="M 6502,1871 L 6779,2148 1367,7559 1091,7283 6502,1871 Z"/>
         <path fill="rgb(216,216,216)" stroke="none" d="M 6779,2148 L 6875,2244 1463,7655 1367,7559 6779,2148 Z"/>
         <path fill="rgb(217,217,217)" stroke="none" d="M 6875,2244 L 6971,2340 1560,7752 1463,7655 6875,2244 Z"/>
         <path fill="rgb(217,217,217)" stroke="none" d="M 6971,2340 L 7067,2436 1656,7848 1560,7752 6971,2340 Z"/>
         <path fill="rgb(218,218,218)" stroke="none" d="M 7067,2436 L 7164,2532 1752,7944 1656,7848 7067,2436 Z"/>
         <path fill="rgb(218,218,218)" stroke="none" d="M 7164,2532 L 7260,2629 1848,8040 1752,7944 7164,2532 Z"/>
         <path fill="rgb(219,219,219)" stroke="none" d="M 7260,2629 L 7356,2725 1944,8136 1848,8040 7260,2629 Z"/>
         <path fill="rgb(219,219,219)" stroke="none" d="M 7356,2725 L 7452,2821 2041,8233 1944,8136 7356,2725 Z"/>
         <path fill="rgb(220,220,220)" stroke="none" d="M 7452,2821 L 7548,2917 2137,8329 2041,8233 7452,2821 Z"/>
         <path fill="rgb(221,221,221)" stroke="none" d="M 7548,2917 L 7644,3013 2233,8425 2137,8329 7548,2917 Z"/>
         <path fill="rgb(221,221,221)" stroke="none" d="M 7644,3013 L 7741,3110 2329,8521 2233,8425 7644,3013 Z"/>
         <path fill="rgb(222,222,222)" stroke="none" d="M 7741,3110 L 7837,3206 2425,8617 2329,8521 7741,3110 Z"/>
         <path fill="rgb(222,222,222)" stroke="none" d="M 7837,3206 L 7933,3302 2521,8714 2425,8617 7837,3206 Z"/>
         <path fill="rgb(223,223,223)" stroke="none" d="M 7933,3302 L 8029,3398 2618,8810 2521,8714 7933,3302 Z"/>
         <path fill="rgb(224,224,224)" stroke="none" d="M 8029,3398 L 8125,3494 2714,8906 2618,8810 8029,3398 Z"/>
         <path fill="rgb(224,224,224)" stroke="none" d="M 8125,3494 L 8222,3591 2810,9002 2714,8906 8125,3494 Z"/>
         <path fill="rgb(225,225,225)" stroke="none" d="M 8222,3591 L 8318,3687 2906,9098 2810,9002 8222,3591 Z"/>
         <path fill="rgb(225,225,225)" stroke="none" d="M 8318,3687 L 8414,3783 3002,9194 2906,9098 8318,3687 Z"/>
         <path fill="rgb(226,226,226)" stroke="none" d="M 8414,3783 L 8510,3879 3099,9291 3002,9194 8414,3783 Z"/>
         <path fill="rgb(226,226,226)" stroke="none" d="M 8510,3879 L 8606,3975 3195,9387 3099,9291 8510,3879 Z"/>
         <path fill="rgb(227,227,227)" stroke="none" d="M 8606,3975 L 8703,4071 3291,9483 3195,9387 8606,3975 Z"/>
         <path fill="rgb(228,228,228)" stroke="none" d="M 8703,4071 L 8799,4168 3387,9579 3291,9483 8703,4071 Z"/>
         <path fill="rgb(228,228,228)" stroke="none" d="M 8799,4168 L 8895,4264 3483,9675 3387,9579 8799,4168 Z"/>
         <path fill="rgb(229,229,229)" stroke="none" d="M 8895,4264 L 8991,4360 3580,9772 3483,9675 8895,4264 Z"/>
         <path fill="rgb(229,229,229)" stroke="none" d="M 8991,4360 L 9087,4456 3676,9868 3580,9772 8991,4360 Z"/>
         <path fill="rgb(230,230,230)" stroke="none" d="M 9087,4456 L 9183,4552 3772,9964 3676,9868 9087,4456 Z"/>
         <path fill="rgb(230,230,230)" stroke="none" d="M 9183,4552 L 9280,4649 3868,10060 3772,9964 9183,4552 Z"/>
         <path fill="rgb(231,231,231)" stroke="none" d="M 9280,4649 L 9376,4745 3964,10156 3868,10060 9280,4649 Z"/>
         <path fill="rgb(232,232,232)" stroke="none" d="M 9376,4745 L 9472,4841 4060,10253 3964,10156 9376,4745 Z"/>
         <path fill="rgb(232,232,232)" stroke="none" d="M 9472,4841 L 9568,4937 4157,10349 4060,10253 9472,4841 Z"/>
         <path fill="rgb(233,233,233)" stroke="none" d="M 9568,4937 L 9664,5033 4253,10445 4157,10349 9568,4937 Z"/>
         <path fill="rgb(233,233,233)" stroke="none" d="M 9664,5033 L 9761,5130 4349,10541 4253,10445 9664,5033 Z"/>
         <path fill="rgb(234,234,234)" stroke="none" d="M 9761,5130 L 9857,5226 4445,10637 4349,10541 9761,5130 Z"/>
         <path fill="rgb(234,234,234)" stroke="none" d="M 9857,5226 L 9953,5322 4541,10733 4445,10637 9857,5226 Z"/>
         <path fill="rgb(235,235,235)" stroke="none" d="M 9953,5322 L 10049,5418 4638,10830 4541,10733 9953,5322 Z"/>
         <path fill="rgb(236,236,236)" stroke="none" d="M 10049,5418 L 10145,5514 4734,10926 4638,10830 10049,5418 Z"/>
         <path fill="rgb(236,236,236)" stroke="none" d="M 10145,5514 L 10242,5610 4830,11022 4734,10926 10145,5514 Z"/>
         <path fill="rgb(237,237,237)" stroke="none" d="M 10242,5610 L 10338,5707 4926,11118 4830,11022 10242,5610 Z"/>
         <path fill="rgb(237,237,237)" stroke="none" d="M 10338,5707 L 10434,5803 5022,11214 4926,11118 10338,5707 Z"/>
         <path fill="rgb(238,238,238)" stroke="none" d="M 10434,5803 L 10530,5899 5119,11311 5022,11214 10434,5803 Z"/>
         <path fill="rgb(239,239,239)" stroke="none" d="M 10530,5899 L 10626,5995 5215,11407 5119,11311 10530,5899 Z"/>
         <path fill="rgb(239,239,239)" stroke="none" d="M 10626,5995 L 10722,6091 5311,11503 5215,11407 10626,5995 Z"/>
         <path fill="rgb(240,240,240)" stroke="none" d="M 10722,6091 L 10819,6188 5407,11599 5311,11503 10722,6091 Z"/>
         <path fill="rgb(240,240,240)" stroke="none" d="M 10819,6188 L 10915,6284 5503,11695 5407,11599 10819,6188 Z"/>
         <path fill="rgb(241,241,241)" stroke="none" d="M 10915,6284 L 11011,6380 5599,11792 5503,11695 10915,6284 Z"/>
         <path fill="rgb(241,241,241)" stroke="none" d="M 11011,6380 L 11107,6476 5696,11888 5599,11792 11011,6380 Z"/>
         <path fill="rgb(242,242,242)" stroke="none" d="M 11107,6476 L 12039,7407 6627,12819 5696,11888 11107,6476 Z"/>
        </g>
        <path fill="none" stroke="rgb(48,48,48)" stroke-width="265" stroke-linejoin="miter" d="M 6495,2262 C 7024,2262 7474,2712 7474,3241 7474,3770 7024,4193 6495,4193 5966,4193 5543,3770 5543,3241 5543,2712 5966,2262 6495,2262 Z"/>
        <path fill="none" stroke="rgb(48,48,48)" stroke-width="265" stroke-linejoin="miter" d="M 4961,10490 C 5516,10490 5887,10384 5887,9723 L 5887,6072 C 5887,5437 5516,5305 4961,5305 L 4908,5305 4908,4802 7368,4802 7368,9670 C 7368,10331 7712,10490 8294,10490 L 8453,10490 8453,10993 4802,10993 4802,10490 4961,10490 Z"/>
       </g>
      </g>
     </g>
    </g>
   </g>
  </g>
 </g>
</svg>