<?xml version="1.0" encoding="UTF-8"?>
<!DOCTYPE svg PUBLIC "-//W3C//DTD SVG 1.1//EN" "http://www.w3.org/Graphics/SVG/1.1/DTD/svg11.dtd">
<svg version="1.2" width="297mm" height="210mm" viewBox="0 0 29700 21000" preserveAspectRatio="xMidYMid" fill-rule="evenodd" stroke-width="28.222" stroke-linejoin="round" xmlns="http://www.w3.org/2000/svg" xmlns:ooo="http://xml.openoffice.org/svg/export" xmlns:xlink="http://www.w3.org/1999/xlink" xmlns:presentation="http://sun.com/xmlns/staroffice/presentation" xmlns:smil="http://www.w3.org/2001/SMIL20/" xmlns:anim="urn:oasis:names:tc:opendocument:xmlns:animation:1.0" xmlns:svg="urn:oasis:names:tc:opendocument:xmlns:svg-compatible:1.0" xml:space="preserve">
 <defs class="ClipPathGroup">
  <clipPath id="presentation_clip_path" clipPathUnits="userSpaceOnUse">
   <rect x="0" y="0" width="29700" height="21000"/>
  </clipPath>
  <clipPath id="presentation_clip_path_shrink" clipPathUnits="userSpaceOnUse">
   <rect x="29" y="21" width="29641" height="20958"/>
  </clipPath>
 </defs>
 <defs class="TextShapeIndex">
  <g ooo:slide="id1" ooo:id-list="id3 id4 id5 id6 id7 id8 id9 id10 id11 id12 id13 id14 id15 id16 id17 id18 id19 id20 id21 id22 id23 id24 id25"/>
 </defs>
 <defs class="EmbeddedBulletChars">
  <g id="bullet-char-template-57356" transform="scale(0.00048828125,-0.00048828125)">
   <path d="M 580,1141 L 1163,571 580,0 -4,571 580,1141 Z"/>
  </g>
  <g id="bullet-char-template-57354" transform="scale(0.00048828125,-0.00048828125)">
   <path d="M 8,1128 L 1137,1128 1137,0 8,0 8,1128 Z"/>
  </g>
  <g id="bullet-char-template-10146" transform="scale(0.00048828125,-0.00048828125)">
   <path d="M 174,0 L 602,739 174,1481 1456,739 174,0 Z M 1358,739 L 309,1346 659,739 1358,739 Z"/>
  </g>
  <g id="bullet-char-template-10132" transform="scale(0.00048828125,-0.00048828125)">
   <path d="M 2015,739 L 1276,0 717,0 1260,543 174,543 174,936 1260,936 717,1481 1274,1481 2015,739 Z"/>
  </g>
  <g id="bullet-char-template-10007" transform="scale(0.00048828125,-0.00048828125)">
   <path d="M 0,-2 C -7,14 -16,27 -25,37 L 356,567 C 262,823 215,952 215,954 215,979 228,992 255,992 264,992 276,990 289,987 310,991 331,999 354,1012 L 381,999 492,748 772,1049 836,1024 860,1049 C 881,1039 901,1025 922,1006 886,937 835,863 770,784 769,783 710,716 594,584 L 774,223 C 774,196 753,168 711,139 L 727,119 C 717,90 699,76 672,76 641,76 570,178 457,381 L 164,-76 C 142,-110 111,-127 72,-127 30,-127 9,-110 8,-76 1,-67 -2,-52 -2,-32 -2,-23 -1,-13 0,-2 Z"/>
  </g>
  <g id="bullet-char-template-10004" transform="scale(0.00048828125,-0.00048828125)">
   <path d="M 285,-33 C 182,-33 111,30 74,156 52,228 41,333 41,471 41,549 55,616 82,672 116,743 169,778 240,778 293,778 328,747 346,684 L 369,508 C 377,444 397,411 428,410 L 1163,1116 C 1174,1127 1196,1133 1229,1133 1271,1133 1292,1118 1292,1087 L 1292,965 C 1292,929 1282,901 1262,881 L 442,47 C 390,-6 338,-33 285,-33 Z"/>
  </g>
  <g id="bullet-char-template-9679" transform="scale(0.00048828125,-0.00048828125)">
   <path d="M 813,0 C 632,0 489,54 383,161 276,268 223,411 223,592 223,773 276,916 383,1023 489,1130 632,1184 813,1184 992,1184 1136,1130 1245,1023 1353,916 1407,772 1407,592 1407,412 1353,268 1245,161 1136,54 992,0 813,0 Z"/>
  </g>
  <g id="bullet-char-template-8226" transform="scale(0.00048828125,-0.00048828125)">
   <path d="M 346,457 C 273,457 209,483 155,535 101,586 74,649 74,723 74,796 101,859 155,911 209,963 273,989 346,989 419,989 480,963 531,910 582,859 608,796 608,723 608,648 583,586 532,535 482,483 420,457 346,457 Z"/>
  </g>
  <g id="bullet-char-template-8211" transform="scale(0.00048828125,-0.00048828125)">
   <path d="M -4,459 L 1135,459 1135,606 -4,606 -4,459 Z"/>
  </g>
  <g id="bullet-char-template-61548" transform="scale(0.00048828125,-0.00048828125)">
   <path d="M 173,740 C 173,903 231,1043 346,1159 462,1274 601,1332 765,1332 928,1332 1067,1274 1183,1159 1299,1043 1357,903 1357,740 1357,577 1299,437 1183,322 1067,206 928,148 765,148 601,148 462,206 346,322 231,437 173,577 173,740 Z"/>
  </g>
 </defs>
 <g>
  <g id="id2" class="Master_Slide">
   <g id="bg-id2" class="Background"/>
   <g id="bo-id2" class="BackgroundObjects"/>
  </g>
 </g>
 <g class="SlideGroup">
  <g>
   <g id="container-id1">
    <g id="id1" class="Slide" clip-path="url(#presentation_clip_path)">
     <g class="Page">
      <g class="com.sun.star.drawing.ClosedBezierShape">
       <g id="id3">
        <rect class="BoundingBox" stroke="none" fill="none" x="5857" y="683" width="13161" height="13303"/>
        <path fill="rgb(0,116,208)" stroke="none" d="M 12447,13984 C 19177,14011 19016,8825 19016,8476 16020,14602 9491,13393 7395,10209 5607,7481 6400,3450 11224,2241 11654,1543 12393,1059 13131,683 L 13079,683 13078,683 13072,683 12581,683 C 4674,919 2666,13931 12447,13984 Z"/>
       </g>
      </g>
      <g class="com.sun.star.drawing.ClosedBezierShape">
       <g id="id4">
        <rect class="BoundingBox" stroke="none" fill="none" x="7181" y="4273" width="2688" height="3775"/>
        <path fill="rgb(0,116,208)" stroke="none" d="M 9761,4352 C 9545,3854 7529,5857 7315,6556 7126,7267 7180,7859 7220,8047 7570,7201 9801,5601 9801,5601 9801,5601 9975,4835 9761,4352 Z"/>
       </g>
      </g>
      <g class="com.sun.star.drawing.ClosedBezierShape">
       <g id="id5">
        <rect class="BoundingBox" stroke="none" fill="none" x="10416" y="4516" width="2502" height="3961"/>
        <path fill="rgb(0,116,208)" stroke="none" d="M 12871,4642 C 12869,4599 12872,4557 12876,4516 11658,5337 10733,6633 10416,8476 11043,7203 11915,6259 12917,5607 12856,5477 12820,5335 12815,5194 12807,5015 12841,4842 12871,4668 12871,4660 12872,4651 12871,4642 Z"/>
       </g>
      </g>
      <g class="com.sun.star.drawing.ClosedBezierShape">
       <g id="id6">
        <rect class="BoundingBox" stroke="none" fill="none" x="10416" y="683" width="13088" height="5282"/>
        <path fill="rgb(0,116,208)" stroke="none" d="M 10416,5816 C 13319,-150 21488,992 23503,5964 23503,2776 20274,764 17008,683 L 16563,683 C 13746,766 11012,2314 10416,5816 Z"/>
       </g>
      </g>
      <g class="com.sun.star.drawing.ClosedBezierShape">
       <g id="id7">
        <rect class="BoundingBox" stroke="none" fill="none" x="12611" y="4516" width="308" height="1093"/>
        <path fill="rgb(0,116,208)" stroke="none" d="M 12917,5608 L 12876,4516 12665,4778 C 12665,4778 12593,5023 12615,5087 12637,5150 12711,5317 12715,5331 12718,5345 12764,5497 12764,5497 L 12917,5608 Z"/>
       </g>
      </g>
      <g class="com.sun.star.drawing.ClosedBezierShape">
       <g id="id8">
        <rect class="BoundingBox" stroke="none" fill="none" x="13191" y="3358" width="3031" height="2216"/>
        <path fill="rgb(0,116,208)" stroke="none" d="M 14719,4818 L 15319,3358 16221,3358 16221,3419 16149,3419 C 16083,3419 16031,3430 15992,3453 15965,3468 15943,3494 15927,3530 15915,3556 15909,3624 15909,3734 L 15909,5193 C 15909,5306 15915,5377 15927,5405 15939,5434 15963,5458 16000,5479 16037,5501 16087,5511 16149,5511 L 16221,5511 16221,5573 15065,5573 15065,5511 15137,5511 C 15202,5511 15254,5500 15293,5477 15321,5462 15342,5436 15359,5399 15371,5373 15377,5304 15377,5193 L 15377,3552 14528,5573 14489,5573 13627,3567 13627,5126 C 13627,5235 13629,5302 13635,5327 13649,5381 13680,5426 13727,5460 13774,5494 13849,5511 13950,5511 L 13950,5573 13191,5573 13191,5511 13214,5511 C 13263,5512 13309,5505 13351,5488 13394,5471 13426,5448 13448,5420 13470,5392 13486,5352 13498,5301 13501,5289 13502,5233 13502,5134 L 13502,3734 C 13502,3622 13496,3552 13484,3524 13472,3496 13447,3472 13410,3450 13373,3429 13324,3419 13262,3419 L 13191,3419 13191,3358 14097,3358 14719,4818 Z"/>
       </g>
      </g>
      <g class="com.sun.star.drawing.ClosedBezierShape">
       <g id="id9">
        <rect class="BoundingBox" stroke="none" fill="none" x="16347" y="3358" width="1954" height="2216"/>
        <path fill="rgb(0,116,208)" stroke="none" d="M 16347,3358 L 18300,3358 18300,3959 18240,3959 C 18214,3811 18180,3706 18139,3646 18099,3585 18049,3545 17990,3528 17931,3511 17815,3502 17641,3502 L 17190,3502 17190,5222 C 17190,5346 17208,5426 17245,5460 17281,5494 17348,5511 17445,5511 L 17502,5511 17502,5573 16347,5573 16347,5511 16409,5511 C 16505,5511 16570,5493 16606,5457 16641,5420 16658,5342 16658,5222 L 16658,3694 C 16658,3594 16644,3523 16615,3481 16585,3440 16519,3419 16417,3419 L 16347,3419 16347,3358 Z"/>
       </g>
      </g>
      <g class="com.sun.star.drawing.ClosedBezierShape">
       <g id="id10">
        <rect class="BoundingBox" stroke="none" fill="none" x="18435" y="3358" width="2398" height="2266"/>
        <path fill="rgb(0,116,208)" stroke="none" d="M 20090,3358 L 20832,3358 20832,3420 C 20756,3426 20693,3454 20645,3503 20597,3552 20534,3652 20457,3805 L 19767,5156 C 19659,5368 19566,5498 19487,5548 19408,5598 19314,5623 19205,5623 19087,5623 18997,5591 18937,5527 18876,5463 18846,5391 18846,5312 18846,5247 18868,5194 18910,5152 18953,5110 19006,5090 19068,5090 19127,5090 19170,5105 19197,5135 19224,5166 19243,5221 19254,5300 19267,5394 19306,5441 19370,5441 19446,5441 19519,5368 19589,5222 L 19620,5156 18828,3718 C 18761,3598 18702,3519 18653,3483 18603,3447 18531,3426 18436,3420 L 18436,3358 19540,3358 19540,3420 19497,3420 C 19369,3420 19305,3450 19305,3511 19305,3534 19317,3568 19341,3612 L 19894,4621 20314,3795 C 20372,3682 20401,3601 20401,3552 20401,3515 20384,3484 20350,3460 20316,3436 20229,3423 20090,3420 L 20090,3358 Z"/>
       </g>
      </g>
      <g class="com.sun.star.drawing.PolyPolygonShape">
       <g id="id11">
        <rect class="BoundingBox" stroke="none" fill="none" x="20607" y="4332" width="227" height="1128"/>
        <path fill="rgb(0,116,208)" stroke="none" d="M 20607,5459 L 20629,4332 20765,4555 20832,4962 20719,5292 20607,5459 Z"/>
       </g>
      </g>
      <g class="com.sun.star.drawing.ClosedBezierShape">
       <g id="id12">
        <rect class="BoundingBox" stroke="none" fill="none" x="7407" y="7202" width="2260" height="2552"/>
        <path fill="rgb(0,116,208)" stroke="none" d="M 7407,8771 C 7475,9202 7555,9296 7865,9753 8241,9296 9666,8207 9666,8207 9666,8207 9652,7616 9491,7253 9383,6917 7716,8341 7407,8771 Z"/>
       </g>
      </g>
      <g class="com.sun.star.drawing.ClosedBezierShape">
       <g id="id13">
        <rect class="BoundingBox" stroke="none" fill="none" x="6197" y="11524" width="2556" height="4081"/>
        <path fill="rgb(0,116,208)" stroke="none" d="M 8738,14561 C 8742,14540 8747,14521 8752,14501 7627,13791 6713,12781 6198,11524 6198,13292 7211,14695 8673,15603 8617,15264 8680,14911 8738,14561 Z"/>
       </g>
      </g>
      <g class="com.sun.star.drawing.ClosedBezierShape">
       <g id="id14">
        <rect class="BoundingBox" stroke="none" fill="none" x="10685" y="6110" width="12989" height="13606"/>
        <path fill="rgb(0,116,208)" stroke="none" d="M 17255,6110 C 10525,6083 10685,11377 10685,11740 13681,5479 20211,6715 22307,9967 24094,12761 23221,16886 18383,18121 17819,18834 16825,19344 16180,19707 24537,20069 27251,6164 17255,6110 Z"/>
       </g>
      </g>
      <g class="com.sun.star.drawing.ClosedBezierShape">
       <g id="id15">
        <rect class="BoundingBox" stroke="none" fill="none" x="20606" y="4332" width="2898" height="4306"/>
        <path fill="rgb(0,116,208)" stroke="none" d="M 20629,4332 C 20630,4340 20631,4347 20633,4355 20685,4705 20704,5115 20607,5458 21888,6171 22938,7254 23503,8637 23503,6713 22303,5223 20629,4332 Z"/>
       </g>
      </g>
      <g class="com.sun.star.drawing.ClosedBezierShape">
       <g id="id16">
        <rect class="BoundingBox" stroke="none" fill="none" x="13426" y="8770" width="2649" height="2729"/>
        <path fill="rgb(0,116,208)" stroke="none" d="M 16073,10141 C 16073,9388 15483,8770 14757,8770 14017,8770 13426,9388 13426,10141 13426,10894 14017,11498 14757,11498 15483,11498 16073,10894 16073,10141 Z"/>
       </g>
      </g>
      <g class="com.sun.star.drawing.ClosedBezierShape">
       <g id="id17">
        <rect class="BoundingBox" stroke="none" fill="none" x="17277" y="11686" width="2009" height="3607"/>
        <path fill="rgb(0,116,208)" stroke="none" d="M 17277,14200 C 17328,14319 17358,14447 17358,14570 17358,14809 17348,15055 17297,15291 18279,14468 19009,13283 19284,11686 18762,12745 18071,13575 17277,14200 Z"/>
       </g>
      </g>
      <g class="com.sun.star.drawing.ClosedBezierShape">
       <g id="id18">
        <rect class="BoundingBox" stroke="none" fill="none" x="6197" y="14305" width="13088" height="5404"/>
        <path fill="rgb(0,116,208)" stroke="none" d="M 19284,14467 C 16557,20553 8214,19398 6198,14305 6198,20526 17968,22367 19284,14467 Z"/>
       </g>
      </g>
      <g class="com.sun.star.drawing.ClosedBezierShape">
       <g id="id19">
        <rect class="BoundingBox" stroke="none" fill="none" x="8528" y="14500" width="225" height="1104"/>
        <path fill="rgb(0,116,208)" stroke="none" d="M 8673,15603 L 8752,14500 C 8752,14500 8574,14661 8574,14692 8574,14724 8528,15260 8528,15260 L 8581,15380 8673,15603 Z"/>
       </g>
      </g>
      <g class="com.sun.star.drawing.ClosedBezierShape">
       <g id="id20">
        <rect class="BoundingBox" stroke="none" fill="none" x="9157" y="14498" width="2063" height="2236"/>
        <path fill="rgb(0,116,208)" stroke="none" d="M 9988,15504 C 10144,15504 10259,15486 10333,15451 10407,15416 10464,15366 10504,15303 10543,15239 10563,15158 10563,15059 10563,14960 10544,14879 10505,14816 10466,14753 10410,14705 10337,14672 10265,14639 10148,14623 9988,14624 L 9988,15504 Z M 9988,15632 L 9988,16349 9986,16431 C 9986,16490 10002,16535 10032,16565 10062,16596 10107,16611 10166,16611 10254,16611 10335,16591 10409,16552 10483,16513 10540,16457 10580,16383 10619,16308 10639,16226 10639,16135 10639,16030 10615,15937 10566,15854 10518,15771 10452,15713 10367,15680 10282,15647 10156,15631 9988,15632 Z M 10588,15548 C 10800,15598 10949,15657 11034,15728 11157,15828 11219,15957 11219,16116 11219,16285 11151,16423 11016,16533 10850,16666 10609,16733 10293,16733 L 9157,16733 9157,16672 C 9260,16672 9331,16662 9368,16643 9405,16624 9430,16599 9445,16568 9460,16537 9468,16461 9468,16341 L 9468,14891 C 9468,14770 9460,14694 9445,14663 9430,14631 9404,14606 9367,14588 9330,14569 9259,14560 9157,14560 L 9157,14498 10229,14498 C 10485,14498 10666,14522 10772,14567 10879,14613 10963,14681 11024,14771 11086,14862 11117,14958 11117,15060 11117,15168 11078,15264 11000,15348 10922,15432 10784,15499 10588,15548 Z"/>
       </g>
      </g>
      <g class="com.sun.star.drawing.ClosedBezierShape">
       <g id="id21">
        <rect class="BoundingBox" stroke="none" fill="none" x="11404" y="14498" width="3058" height="2236"/>
        <path fill="rgb(0,116,208)" stroke="none" d="M 12944,15972 L 13550,14498 14461,14498 14461,14560 14388,14560 C 14322,14560 14270,14571 14230,14594 14203,14610 14181,14635 14164,14672 14152,14698 14146,14767 14146,14878 L 14146,16350 C 14146,16465 14152,16536 14164,16565 14176,16593 14201,16618 14238,16640 14276,16661 14326,16672 14388,16672 L 14461,16672 14461,16733 13293,16733 13293,16672 13366,16672 C 13432,16672 13485,16660 13524,16637 13552,16622 13574,16595 13590,16558 13602,16532 13608,16462 13608,16350 L 13608,14695 12751,16733 12712,16733 11842,14710 11842,16283 C 11842,16393 11845,16460 11850,16486 11865,16540 11896,16585 11943,16620 11991,16654 12066,16672 12168,16672 L 12168,16733 11404,16733 11404,16672 11427,16672 C 11476,16673 11522,16665 11565,16648 11608,16631 11641,16608 11663,16579 11684,16551 11701,16511 11714,16459 11716,16447 11717,16391 11717,16291 L 11717,14878 C 11717,14765 11711,14694 11699,14666 11687,14638 11662,14613 11625,14592 11587,14570 11537,14560 11475,14560 L 11404,14560 11404,14498 12317,14498 12944,15972 Z"/>
       </g>
      </g>
      <g class="com.sun.star.drawing.ClosedBezierShape">
       <g id="id22">
        <rect class="BoundingBox" stroke="none" fill="none" x="14590" y="14471" width="2326" height="2263"/>
        <path fill="rgb(0,116,208)" stroke="none" d="M 14590,14498 L 15754,14498 15754,14559 15716,14559 C 15606,14559 15533,14579 15496,14619 15459,14659 15441,14736 15441,14848 L 15441,15515 C 15595,15515 15695,15510 15741,15500 15787,15489 15830,15459 15869,15409 15909,15359 15947,15263 15983,15120 16026,14953 16067,14828 16107,14744 16147,14660 16203,14594 16274,14545 16345,14496 16433,14471 16540,14471 16645,14471 16730,14501 16794,14561 16857,14621 16889,14696 16889,14784 16889,14852 16868,14906 16825,14945 16782,14985 16729,15004 16665,15004 16540,15004 16472,14932 16462,14787 16458,14715 16433,14677 16387,14677 16337,14677 16295,14706 16260,14762 16225,14818 16187,14919 16146,15064 16107,15205 16073,15312 16044,15383 16015,15453 15975,15513 15922,15561 15992,15579 16046,15602 16084,15631 16122,15659 16157,15696 16187,15742 16218,15787 16284,15903 16385,16088 L 16612,16494 C 16647,16554 16689,16599 16738,16628 16787,16657 16846,16672 16915,16672 L 16915,16733 16168,16733 15708,15876 C 15655,15779 15616,15721 15592,15701 15567,15680 15517,15668 15441,15665 L 15441,16421 C 15441,16529 15463,16598 15508,16627 15552,16657 15634,16672 15754,16672 L 15754,16733 14590,16733 14590,16672 C 14718,16669 14803,16651 14843,16615 14883,16579 14903,16503 14903,16385 L 14903,14891 C 14903,14760 14887,14671 14855,14626 14823,14581 14751,14559 14638,14559 L 14590,14559 14590,14498 Z"/>
       </g>
      </g>
      <g class="com.sun.star.drawing.ClosedBezierShape">
       <g id="id23">
        <rect class="BoundingBox" stroke="none" fill="none" x="17277" y="14198" width="464" height="1094"/>
        <path fill="rgb(0,116,208)" stroke="none" d="M 17298,15291 L 17277,14199 17361,14199 C 17361,14199 17751,14629 17739,14647 17729,14664 17481,14980 17478,15015 17474,15051 17298,15291 17298,15291 Z"/>
       </g>
      </g>
      <g class="com.sun.star.drawing.ClosedBezierShape">
       <g id="id24">
        <rect class="BoundingBox" stroke="none" fill="none" x="19834" y="12047" width="2688" height="3777"/>
        <path fill="rgb(0,116,208)" stroke="none" d="M 19941,15744 C 20157,16241 22171,14239 22387,13527 22575,12827 22521,12223 22481,12048 22118,12894 19900,14481 19900,14481 19900,14481 19726,15260 19941,15744 Z"/>
       </g>
      </g>
      <g class="com.sun.star.drawing.ClosedBezierShape">
       <g id="id25">
        <rect class="BoundingBox" stroke="none" fill="none" x="20022" y="10342" width="2273" height="2549"/>
        <path fill="rgb(0,116,208)" stroke="none" d="M 22294,11323 C 22226,10893 22146,10799 21837,10342 21460,10799 20022,11888 20022,11888 20022,11888 20035,12479 20210,12842 20304,13164 21985,11754 22294,11323 Z"/>
       </g>
      </g>
     </g>
    </g>
   </g>
  </g>
 </g>
</svg>