<?xml version="1.0" encoding="UTF-8"?>
<!DOCTYPE svg PUBLIC "-//W3C//DTD SVG 1.1//EN" "http://www.w3.org/Graphics/SVG/1.1/DTD/svg11.dtd">
<svg version="1.2" width="132.82mm" height="132.82mm" viewBox="0 0 13282 13282" preserveAspectRatio="xMidYMid" fill-rule="evenodd" stroke-width="28.222" stroke-linejoin="round" xmlns="http://www.w3.org/2000/svg" xmlns:ooo="http://xml.openoffice.org/svg/export" xmlns:xlink="http://www.w3.org/1999/xlink" xmlns:presentation="http://sun.com/xmlns/staroffice/presentation" xmlns:smil="http://www.w3.org/2001/SMIL20/" xmlns:anim="urn:oasis:names:tc:opendocument:xmlns:animation:1.0" xmlns:svg="urn:oasis:names:tc:opendocument:xmlns:svg-compatible:1.0" xml:space="preserve">
 <defs class="ClipPathGroup">
  <clipPath id="presentation_clip_path" clipPathUnits="userSpaceOnUse">
   <rect x="0" y="0" width="13282" height="13282"/>
  </clipPath>
  <clipPath id="presentation_clip_path_shrink" clipPathUnits="userSpaceOnUse">
   <rect x="13" y="13" width="13256" height="13256"/>
  </clipPath>
 </defs>
 <defs class="TextShapeIndex">
  <g ooo:slide="id1" ooo:id-list="id3"/>
 </defs>
 <defs class="EmbeddedBulletChars">
  <g id="bullet-char-template-57356" transform="scale(0.00048828125,-0.00048828125)">
   <path d="M 580,1141 L 1163,571 580,0 -4,571 580,1141 Z"/>
  </g>
  <g id="bullet-char-template-57354" transform="scale(0.00048828125,-0.00048828125)">
   <path d="M 8,1128 L 1137,1128 1137,0 8,0 8,1128 Z"/>
  </g>
  <g id="bullet-char-template-10146" transform="scale(0.00048828125,-0.00048828125)">
   <path d="M 174,0 L 602,739 174,1481 1456,739 174,0 Z M 1358,739 L 309,1346 659,739 1358,739 Z"/>
  </g>
  <g id="bullet-char-template-10132" transform="scale(0.00048828125,-0.00048828125)">
   <path d="M 2015,739 L 1276,0 717,0 1260,543 174,543 174,936 1260,936 717,1481 1274,1481 2015,739 Z"/>
  </g>
  <g id="bullet-char-template-10007" transform="scale(0.00048828125,-0.00048828125)">
   <path d="M 0,-2 C -7,14 -16,27 -25,37 L 356,567 C 262,823 215,952 215,954 215,979 228,992 255,992 264,992 276,990 289,987 310,991 331,999 354,1012 L 381,999 492,748 772,1049 836,1024 860,1049 C 881,1039 901,1025 922,1006 886,937 835,863 770,784 769,783 710,716 594,584 L 774,223 C 774,196 753,168 711,139 L 727,119 C 717,90 699,76 672,76 641,76 570,178 457,381 L 164,-76 C 142,-110 111,-127 72,-127 30,-127 9,-110 8,-76 1,-67 -2,-52 -2,-32 -2,-23 -1,-13 0,-2 Z"/>
  </g>
  <g id="bullet-char-template-10004" transform="scale(0.00048828125,-0.00048828125)">
   <path d="M 285,-33 C 182,-33 111,30 74,156 52,228 41,333 41,471 41,549 55,616 82,672 116,743 169,778 240,778 293,778 328,747 346,684 L 369,508 C 377,444 397,411 428,410 L 1163,1116 C 1174,1127 1196,1133 1229,1133 1271,1133 1292,1118 1292,1087 L 1292,965 C 1292,929 1282,901 1262,881 L 442,47 C 390,-6 338,-33 285,-33 Z"/>
  </g>
  <g id="bullet-char-template-9679" transform="scale(0.00048828125,-0.00048828125)">
   <path d="M 813,0 C 632,0 489,54 383,161 276,268 223,411 223,592 223,773 276,916 383,1023 489,1130 632,1184 813,1184 992,1184 1136,1130 1245,1023 1353,916 1407,772 1407,592 1407,412 1353,268 1245,161 1136,54 992,0 813,0 Z"/>
  </g>
  <g id="bullet-char-template-8226" transform="scale(0.00048828125,-0.00048828125)">
   <path d="M 346,457 C 273,457 209,483 155,535 101,586 74,649 74,723 74,796 101,859 155,911 209,963 273,989 346,989 419,989 480,963 531,910 582,859 608,796 608,723 608,648 583,586 532,535 482,483 420,457 346,457 Z"/>
  </g>
  <g id="bullet-char-template-8211" transform="scale(0.00048828125,-0.00048828125)">
   <path d="M -4,459 L 1135,459 1135,606 -4,606 -4,459 Z"/>
  </g>
  <g id="bullet-char-template-61548" transform="scale(0.00048828125,-0.00048828125)">
   <path d="M 173,740 C 173,903 231,1043 346,1159 462,1274 601,1332 765,1332 928,1332 1067,1274 1183,1159 1299,1043 1357,903 1357,740 1357,577 1299,437 1183,322 1067,206 928,148 765,148 601,148 462,206 346,322 231,437 173,577 173,740 Z"/>
  </g>
 </defs>
 <g>
  <g id="id2" class="Master_Slide">
   <g id="bg-id2" class="Background"/>
   <g id="bo-id2" class="BackgroundObjects"/>
  </g>
 </g>
 <g class="SlideGroup">
  <g>
   <g id="container-id1">
    <g id="id1" class="Slide" clip-path="url(#presentation_clip_path)">
     <g class="Page">
      <g class="Graphic">
       <g id="id3">
        <rect class="BoundingBox" stroke="none" fill="none" x="-585" y="-582" width="14458" height="14458"/>
        <path fill="rgb(51,71,153)" stroke="none" d="M 6498,11636 L 10396,11636 C 10679,11636 10910,11406 10910,11122 L 10910,3325 C 10910,3042 10679,2811 10396,2811 L 2599,2811 C 2316,2811 2085,3042 2085,3325 L 2085,11122 C 2085,11406 2316,11636 2599,11636 L 6498,11636 6498,11636 Z"/>
        <path fill="none" stroke="rgb(0,0,0)" stroke-width="197" stroke-linejoin="round" stroke-linecap="round" d="M 6498,11636 L 10396,11636 C 10679,11636 10910,11406 10910,11122 L 10910,3325 C 10910,3042 10679,2811 10396,2811 L 2599,2811 C 2316,2811 2085,3042 2085,3325 L 2085,11122 C 2085,11406 2316,11636 2599,11636 L 6498,11636 Z"/>
        <path fill="rgb(255,255,255)" stroke="none" d="M 3041,4704 L 3041,8130 3041,8130 C 3041,8155 3047,8180 3060,8201 3072,8223 3091,8241 3113,8254 3134,8266 3159,8273 3184,8273 3192,8273 3200,8273 3206,8272 L 4286,8098 4286,8098 C 4303,8096 4320,8090 4334,8081 4356,8069 4374,8051 4387,8029 4399,8007 4406,7982 4406,7957 4406,7942 4404,7926 4399,7912 L 3319,4659 3319,4659 C 3317,4651 3313,4644 3310,4637 3297,4615 3278,4597 3256,4585 3235,4572 3210,4565 3184,4565 3159,4565 3134,4572 3113,4585 3091,4597 3072,4615 3060,4637 3048,4658 3042,4681 3041,4704 L 3041,4704 3041,4704 Z"/>
        <path fill="none" stroke="rgb(0,0,0)" stroke-width="197" stroke-linejoin="round" stroke-linecap="round" d="M 3041,4704 L 3041,8130 3041,8130 C 3041,8155 3047,8180 3060,8201 3072,8223 3091,8241 3113,8254 3134,8266 3159,8273 3184,8273 3192,8273 3200,8273 3206,8272 L 4286,8098 4286,8098 C 4303,8096 4320,8090 4334,8081 4356,8069 4374,8051 4387,8029 4399,8007 4406,7982 4406,7957 4406,7942 4404,7926 4399,7912 L 3319,4659 3319,4659 C 3317,4651 3313,4644 3310,4637 3297,4615 3278,4597 3256,4585 3235,4572 3210,4565 3184,4565 3159,4565 3134,4572 3113,4585 3091,4597 3072,4615 3060,4637 3048,4658 3042,4681 3041,4704 Z"/>
        <path fill="rgb(255,255,255)" stroke="none" d="M 4037,3819 L 6989,3819 6989,3819 C 7014,3819 7039,3825 7060,3838 7082,3850 7101,3869 7114,3891 7126,3912 7132,3937 7132,3962 L 7132,3962 7132,7504 7132,7504 C 7132,7529 7126,7554 7114,7576 7101,7598 7082,7616 7060,7628 7047,7636 7032,7641 7017,7645 L 5355,7967 5355,7967 C 5346,7969 5336,7969 5328,7969 5303,7969 5278,7962 5256,7950 5234,7937 5215,7919 5204,7897 5198,7889 5195,7881 5192,7872 L 3902,4007 3902,4007 C 3896,3993 3894,3978 3894,3962 3894,3937 3901,3912 3914,3891 3927,3869 3944,3850 3966,3838 3988,3825 4012,3819 4037,3819 L 4037,3819 4037,3819 Z"/>
        <path fill="none" stroke="rgb(0,0,0)" stroke-width="197" stroke-linejoin="round" stroke-linecap="round" d="M 4037,3819 L 6989,3819 6989,3819 C 7014,3819 7039,3825 7060,3838 7082,3850 7101,3869 7114,3891 7126,3912 7132,3937 7132,3962 L 7132,3962 7132,7504 7132,7504 C 7132,7529 7126,7554 7114,7576 7101,7598 7082,7616 7060,7628 7047,7636 7032,7641 7017,7645 L 5355,7967 5355,7967 C 5346,7969 5336,7969 5328,7969 5303,7969 5278,7962 5256,7950 5234,7937 5215,7919 5204,7897 5198,7889 5195,7881 5192,7872 L 3902,4007 3902,4007 C 3896,3993 3894,3978 3894,3962 3894,3937 3901,3912 3914,3891 3927,3869 3944,3850 3966,3838 3988,3825 4012,3819 4037,3819 Z"/>
        <path fill="rgb(255,255,255)" stroke="none" d="M 7803,3961 L 7803,7414 7803,7414 C 7803,7438 7809,7463 7821,7485 7834,7506 7853,7524 7875,7537 7896,7550 7921,7556 7946,7556 7954,7556 7960,7555 7968,7554 L 9871,7243 9871,7243 C 9888,7240 9903,7234 9919,7226 9940,7214 9959,7195 9971,7173 9984,7152 9990,7126 9990,7101 L 9990,3962 9990,3962 9990,3962 C 9990,3937 9984,3912 9971,3891 9959,3869 9940,3851 9919,3838 9897,3825 9872,3819 9847,3819 L 7945,3819 7945,3819 C 7920,3819 7896,3825 7875,3838 7853,3851 7834,3869 7821,3891 7809,3912 7803,3936 7803,3961 L 7803,3961 7803,3961 Z"/>
        <path fill="none" stroke="rgb(0,0,0)" stroke-width="197" stroke-linejoin="round" stroke-linecap="round" d="M 7803,3961 L 7803,7414 7803,7414 C 7803,7438 7809,7463 7821,7485 7834,7506 7853,7524 7875,7537 7896,7550 7921,7556 7946,7556 7954,7556 7960,7555 7968,7554 L 9871,7243 9871,7243 C 9888,7240 9903,7234 9919,7226 9940,7214 9959,7195 9971,7173 9984,7152 9990,7126 9990,7101 L 9990,3962 9990,3962 9990,3962 C 9990,3937 9984,3912 9971,3891 9959,3869 9940,3851 9919,3838 9897,3825 9872,3819 9847,3819 L 7945,3819 7945,3819 C 7920,3819 7896,3825 7875,3838 7853,3851 7834,3869 7821,3891 7809,3912 7803,3936 7803,3961 Z"/>
        <path fill="rgb(255,255,255)" stroke="none" d="M 3041,9952 L 3041,10424 3041,10424 C 3041,10449 3047,10475 3060,10496 3072,10518 3091,10537 3113,10550 3134,10562 3159,10568 3184,10568 L 8048,10568 8048,10568 C 8073,10568 8097,10562 8118,10550 8140,10537 8158,10518 8171,10496 8184,10475 8190,10449 8190,10424 8190,10412 8188,10399 8185,10387 L 7836,9139 7836,9139 C 7833,9127 7829,9116 7823,9106 7810,9085 7792,9066 7770,9054 7748,9041 7723,9035 7698,9035 7691,9035 7683,9036 7675,9037 L 3158,9811 3158,9811 C 3142,9814 3127,9819 3113,9828 3091,9841 3072,9858 3060,9880 3047,9902 3041,9927 3041,9952 L 3041,9952 3041,9952 Z"/>
        <path fill="none" stroke="rgb(0,0,0)" stroke-width="197" stroke-linejoin="round" stroke-linecap="round" d="M 3041,9952 L 3041,10424 3041,10424 C 3041,10449 3047,10475 3060,10496 3072,10518 3091,10537 3113,10550 3134,10562 3159,10568 3184,10568 L 8048,10568 8048,10568 C 8073,10568 8097,10562 8118,10550 8140,10537 8158,10518 8171,10496 8184,10475 8190,10449 8190,10424 8190,10412 8188,10399 8185,10387 L 7836,9139 7836,9139 C 7833,9127 7829,9116 7823,9106 7810,9085 7792,9066 7770,9054 7748,9041 7723,9035 7698,9035 7691,9035 7683,9036 7675,9037 L 3158,9811 3158,9811 C 3142,9814 3127,9819 3113,9828 3091,9841 3072,9858 3060,9880 3047,9902 3041,9927 3041,9952 Z"/>
        <path fill="rgb(255,255,255)" stroke="none" d="M 8562,9036 L 8963,10464 8963,10464 C 8966,10476 8971,10485 8977,10496 8989,10518 9008,10537 9029,10549 9051,10562 9075,10568 9100,10568 L 9848,10568 9848,10568 C 9873,10568 9898,10562 9920,10549 9941,10537 9960,10518 9972,10496 9985,10475 9992,10449 9992,10424 L 9992,8738 9992,8738 C 9992,8713 9985,8689 9972,8668 9960,8646 9941,8627 9920,8615 9898,8602 9873,8596 9848,8596 9837,8596 9827,8597 9817,8599 L 8670,8858 8670,8858 C 8656,8861 8642,8867 8630,8873 8608,8886 8590,8905 8577,8927 8565,8949 8558,8974 8558,8999 8558,9012 8559,9024 8562,9036 L 8562,9036 8562,9036 Z"/>
        <path fill="none" stroke="rgb(0,0,0)" stroke-width="197" stroke-linejoin="round" stroke-linecap="round" d="M 8562,9036 L 8963,10464 8963,10464 C 8966,10476 8971,10485 8977,10496 8989,10518 9008,10537 9029,10549 9051,10562 9075,10568 9100,10568 L 9848,10568 9848,10568 C 9873,10568 9898,10562 9920,10549 9941,10537 9960,10518 9972,10496 9985,10475 9992,10449 9992,10424 L 9992,8738 9992,8738 C 9992,8713 9985,8689 9972,8668 9960,8646 9941,8627 9920,8615 9898,8602 9873,8596 9848,8596 9837,8596 9827,8597 9817,8599 L 8670,8858 8670,8858 C 8656,8861 8642,8867 8630,8873 8608,8886 8590,8905 8577,8927 8565,8949 8558,8974 8558,8999 8558,9012 8559,9024 8562,9036 Z"/>
        <path fill="rgb(251,137,0)" stroke="none" d="M 9079,151 L 9079,151 9079,151 C 8783,151 8493,229 8237,376 7981,524 7769,736 7621,992 7474,1248 7396,1539 7396,1835 L 7396,1835 C 7396,2764 9079,5132 9079,5132 9079,5132 10762,2764 10762,1835 L 10762,1835 10762,1835 C 10762,1539 10685,1248 10537,992 10389,736 10177,524 9921,376 9665,229 9374,151 9079,151 L 9079,151 9079,151 Z M 9079,2751 L 9079,2751 C 8900,2751 8722,2704 8567,2614 8411,2524 8282,2395 8192,2239 8102,2083 8054,1906 8054,1727 8054,1547 8102,1370 8192,1214 8282,1059 8411,929 8567,840 8722,749 8900,702 9079,702 9259,702 9435,749 9591,840 9748,929 9876,1059 9966,1214 10057,1370 10104,1547 10104,1727 L 10104,1727 10104,1727 C 10104,1906 10057,2083 9966,2239 9876,2395 9748,2524 9591,2614 9435,2704 9259,2751 9079,2751 L 9079,2751 9079,2751 Z"/>
        <path fill="none" stroke="rgb(0,0,0)" stroke-width="197" stroke-linejoin="round" stroke-linecap="round" d="M 9079,151 L 9079,151 9079,151 C 8783,151 8493,229 8237,376 7981,524 7769,736 7621,992 7474,1248 7396,1539 7396,1835 L 7396,1835 C 7396,2764 9079,5132 9079,5132 9079,5132 10762,2764 10762,1835 L 10762,1835 10762,1835 C 10762,1539 10685,1248 10537,992 10389,736 10177,524 9921,376 9665,229 9374,151 9079,151 Z"/>
        <path fill="none" stroke="rgb(0,0,0)" stroke-width="197" stroke-linejoin="round" stroke-linecap="round" d="M 9079,2751 L 9079,2751 C 8900,2751 8722,2704 8567,2614 8411,2524 8282,2395 8192,2239 8102,2083 8054,1906 8054,1727 8054,1547 8102,1370 8192,1214 8282,1059 8411,929 8567,840 8722,749 8900,702 9079,702 9259,702 9435,749 9591,840 9748,929 9876,1059 9966,1214 10057,1370 10104,1547 10104,1727 L 10104,1727 10104,1727 C 10104,1906 10057,2083 9966,2239 9876,2395 9748,2524 9591,2614 9435,2704 9259,2751 9079,2751 Z"/>
        <path fill="rgb(255,255,255)" stroke="none" d="M 9244,716 C 9421,744 9588,819 9727,933 9866,1047 9973,1196 10037,1363 10101,1532 10120,1714 10091,1891 10062,2069 9987,2235 9873,2374 9760,2514 9611,2621 9443,2685 9274,2749 9092,2767 8915,2738 8738,2710 8571,2635 8432,2520 8292,2407 8186,2259 8122,2090 8057,1923 8039,1740 8068,1562 8097,1385 8172,1219 8286,1079 8399,940 8548,833 8716,769 8885,705 9066,686 9244,716 L 9244,716 9244,716 Z"/>
        <path fill="none" stroke="rgb(0,0,0)" stroke-width="197" stroke-linejoin="round" stroke-linecap="round" d="M 9244,716 C 9421,744 9588,819 9727,933 9866,1047 9973,1196 10037,1363 10101,1532 10120,1714 10091,1891 10062,2069 9987,2235 9873,2374 9760,2514 9611,2621 9443,2685 9274,2749 9092,2767 8915,2738 8738,2710 8571,2635 8432,2520 8292,2407 8186,2259 8122,2090 8057,1923 8039,1740 8068,1562 8097,1385 8172,1219 8286,1079 8399,940 8548,833 8716,769 8885,705 9066,686 9244,716 Z"/>
       </g>
      </g>
     </g>
    </g>
   </g>
  </g>
 </g>
</svg>