<?xml version="1.0" encoding="UTF-8"?>
<!DOCTYPE svg PUBLIC "-//W3C//DTD SVG 1.1//EN" "http://www.w3.org/Graphics/SVG/1.1/DTD/svg11.dtd">
<svg version="1.2" width="12.96mm" height="12.96mm" viewBox="0 0 1296 1296" preserveAspectRatio="xMidYMid" fill-rule="evenodd" stroke-width="28.222" stroke-linejoin="round" xmlns="http://www.w3.org/2000/svg" xmlns:ooo="http://xml.openoffice.org/svg/export" xmlns:xlink="http://www.w3.org/1999/xlink" xmlns:presentation="http://sun.com/xmlns/staroffice/presentation" xmlns:smil="http://www.w3.org/2001/SMIL20/" xmlns:anim="urn:oasis:names:tc:opendocument:xmlns:animation:1.0" xmlns:svg="urn:oasis:names:tc:opendocument:xmlns:svg-compatible:1.0" xml:space="preserve">
 <defs class="ClipPathGroup">
  <clipPath id="presentation_clip_path" clipPathUnits="userSpaceOnUse">
   <rect x="0" y="0" width="1296" height="1296"/>
  </clipPath>
  <clipPath id="presentation_clip_path_shrink" clipPathUnits="userSpaceOnUse">
   <rect x="1" y="1" width="1294" height="1294"/>
  </clipPath>
 </defs>
 <defs class="TextShapeIndex">
  <g ooo:slide="id1" ooo:id-list="id3"/>
 </defs>
 <defs class="EmbeddedBulletChars">
  <g id="bullet-char-template-57356" transform="scale(0.00048828125,-0.00048828125)">
   <path d="M 580,1141 L 1163,571 580,0 -4,571 580,1141 Z"/>
  </g>
  <g id="bullet-char-template-57354" transform="scale(0.00048828125,-0.00048828125)">
   <path d="M 8,1128 L 1137,1128 1137,0 8,0 8,1128 Z"/>
  </g>
  <g id="bullet-char-template-10146" transform="scale(0.00048828125,-0.00048828125)">
   <path d="M 174,0 L 602,739 174,1481 1456,739 174,0 Z M 1358,739 L 309,1346 659,739 1358,739 Z"/>
  </g>
  <g id="bullet-char-template-10132" transform="scale(0.00048828125,-0.00048828125)">
   <path d="M 2015,739 L 1276,0 717,0 1260,543 174,543 174,936 1260,936 717,1481 1274,1481 2015,739 Z"/>
  </g>
  <g id="bullet-char-template-10007" transform="scale(0.00048828125,-0.00048828125)">
   <path d="M 0,-2 C -7,14 -16,27 -25,37 L 356,567 C 262,823 215,952 215,954 215,979 228,992 255,992 264,992 276,990 289,987 310,991 331,999 354,1012 L 381,999 492,748 772,1049 836,1024 860,1049 C 881,1039 901,1025 922,1006 886,937 835,863 770,784 769,783 710,716 594,584 L 774,223 C 774,196 753,168 711,139 L 727,119 C 717,90 699,76 672,76 641,76 570,178 457,381 L 164,-76 C 142,-110 111,-127 72,-127 30,-127 9,-110 8,-76 1,-67 -2,-52 -2,-32 -2,-23 -1,-13 0,-2 Z"/>
  </g>
  <g id="bullet-char-template-10004" transform="scale(0.00048828125,-0.00048828125)">
   <path d="M 285,-33 C 182,-33 111,30 74,156 52,228 41,333 41,471 41,549 55,616 82,672 116,743 169,778 240,778 293,778 328,747 346,684 L 369,508 C 377,444 397,411 428,410 L 1163,1116 C 1174,1127 1196,1133 1229,1133 1271,1133 1292,1118 1292,1087 L 1292,965 C 1292,929 1282,901 1262,881 L 442,47 C 390,-6 338,-33 285,-33 Z"/>
  </g>
  <g id="bullet-char-template-9679" transform="scale(0.00048828125,-0.00048828125)">
   <path d="M 813,0 C 632,0 489,54 383,161 276,268 223,411 223,592 223,773 276,916 383,1023 489,1130 632,1184 813,1184 992,1184 1136,1130 1245,1023 1353,916 1407,772 1407,592 1407,412 1353,268 1245,161 1136,54 992,0 813,0 Z"/>
  </g>
  <g id="bullet-char-template-8226" transform="scale(0.00048828125,-0.00048828125)">
   <path d="M 346,457 C 273,457 209,483 155,535 101,586 74,649 74,723 74,796 101,859 155,911 209,963 273,989 346,989 419,989 480,963 531,910 582,859 608,796 608,723 608,648 583,586 532,535 482,483 420,457 346,457 Z"/>
  </g>
  <g id="bullet-char-template-8211" transform="scale(0.00048828125,-0.00048828125)">
   <path d="M -4,459 L 1135,459 1135,606 -4,606 -4,459 Z"/>
  </g>
  <g id="bullet-char-template-61548" transform="scale(0.00048828125,-0.00048828125)">
   <path d="M 173,740 C 173,903 231,1043 346,1159 462,1274 601,1332 765,1332 928,1332 1067,1274 1183,1159 1299,1043 1357,903 1357,740 1357,577 1299,437 1183,322 1067,206 928,148 765,148 601,148 462,206 346,322 231,437 173,577 173,740 Z"/>
  </g>
 </defs>
 <g>
  <g id="id2" class="Master_Slide">
   <g id="bg-id2" class="Background"/>
   <g id="bo-id2" class="BackgroundObjects"/>
  </g>
 </g>
 <g class="SlideGroup">
  <g>
   <g id="container-id1">
    <g id="id1" class="Slide" clip-path="url(#presentation_clip_path)">
     <g class="Page">
      <g class="Graphic">
       <g id="id3">
        <rect class="BoundingBox" stroke="none" fill="none" x="94" y="94" width="1090" height="1090"/>
        <path fill="rgb(77,163,77)" stroke="none" d="M 1127,839 L 150,839 C 137,839 127,829 127,816 L 127,194 C 127,182 137,172 150,172 L 1127,172 C 1140,172 1150,182 1150,194 L 1150,816 C 1150,829 1140,839 1127,839 L 1127,839 Z"/>
        <path fill="rgb(158,219,158)" stroke="none" d="M 950,238 L 327,238 C 327,312 268,372 194,372 L 194,639 C 268,639 327,698 327,772 L 950,772 C 950,698 1009,639 1083,639 L 1083,372 C 1009,372 950,312 950,238 L 950,238 Z"/>
        <path fill="rgb(77,163,77)" stroke="none" d="M 794,505 C 794,532 787,559 773,583 760,607 740,626 716,640 693,654 666,661 639,661 611,661 584,654 561,640 537,626 517,607 504,583 490,559 483,532 483,505 483,478 490,451 504,427 517,404 537,384 561,370 584,357 611,350 638,350 666,350 693,357 716,370 740,384 760,404 773,427 787,451 794,478 794,505 L 794,505 Z"/>
        <path fill="rgb(0,0,0)" fill-opacity="0.102" stroke="none" d="M 661,839 L 1061,839 1061,794 C 1061,786 1059,779 1055,772 1059,765 1061,758 1061,750 L 1061,683 C 1061,675 1059,668 1055,661 1059,654 1061,646 1061,639 L 1061,572 C 1061,564 1059,557 1055,550 1059,543 1061,535 1061,527 L 1061,461 C 1061,453 1059,445 1055,438 1059,432 1061,424 1061,416 L 1061,350 C 1061,291 960,261 861,261 761,261 661,291 661,350 L 661,416 C 661,424 663,432 666,438 663,445 661,453 661,461 L 661,527 C 661,535 663,543 666,550 663,557 661,564 661,572 L 661,639 C 661,646 663,654 666,661 663,668 661,675 661,683 L 661,750 C 661,758 663,765 666,772 663,779 661,786 661,794 L 661,839 661,839 Z"/>
        <path fill="rgb(216,188,72)" stroke="none" d="M 1083,927 L 727,927 C 715,927 705,937 705,950 L 705,1016 C 705,1075 806,1105 905,1105 1005,1105 1105,1075 1105,1016 L 1105,950 C 1105,937 1095,927 1083,927 L 1083,927 Z"/>
        <path fill="rgb(239,211,88)" stroke="none" d="M 905,861 C 806,861 705,891 705,950 705,1008 806,1039 905,1039 1005,1039 1105,1008 1105,950 1105,891 1005,861 905,861 L 905,861 Z"/>
        <path fill="rgb(216,188,72)" stroke="none" d="M 1083,816 L 727,816 C 715,816 705,826 705,839 L 705,905 C 705,964 806,994 905,994 1005,994 1105,964 1105,905 L 1105,839 C 1105,826 1095,816 1083,816 L 1083,816 Z"/>
        <path fill="rgb(239,211,88)" stroke="none" d="M 905,750 C 806,750 705,780 705,839 705,897 806,927 905,927 1005,927 1105,897 1105,839 1105,780 1005,750 905,750 L 905,750 Z"/>
        <path fill="rgb(216,188,72)" stroke="none" d="M 1083,705 L 727,705 C 715,705 705,715 705,727 L 705,794 C 705,852 806,883 905,883 1005,883 1105,852 1105,794 L 1105,727 C 1105,715 1095,705 1083,705 L 1083,705 Z"/>
        <path fill="rgb(239,211,88)" stroke="none" d="M 905,639 C 806,639 705,669 705,727 705,786 806,816 905,816 1005,816 1105,786 1105,727 1105,669 1005,639 905,639 L 905,639 Z"/>
        <path fill="rgb(216,188,72)" stroke="none" d="M 1083,594 L 727,594 C 715,594 705,604 705,616 L 705,683 C 705,741 806,772 905,772 1005,772 1105,741 1105,683 L 1105,616 C 1105,604 1095,594 1083,594 L 1083,594 Z"/>
        <path fill="rgb(239,211,88)" stroke="none" d="M 905,527 C 806,527 705,558 705,616 705,675 806,705 905,705 1005,705 1105,675 1105,616 1105,558 1005,527 905,527 L 905,527 Z"/>
        <path fill="rgb(216,188,72)" stroke="none" d="M 1083,483 L 727,483 C 715,483 705,493 705,505 L 705,572 C 705,630 806,661 905,661 1005,661 1105,630 1105,572 L 1105,505 C 1105,493 1095,483 1083,483 L 1083,483 Z"/>
        <path fill="rgb(239,211,88)" stroke="none" d="M 905,416 C 806,416 705,447 705,505 705,564 806,594 905,594 1005,594 1105,564 1105,505 1105,447 1005,416 905,416 L 905,416 Z"/>
        <path fill="rgb(216,188,72)" stroke="none" d="M 1083,372 L 727,372 C 715,372 705,382 705,394 L 705,461 C 705,519 806,550 905,550 1005,550 1105,519 1105,461 L 1105,394 C 1105,382 1095,372 1083,372 L 1083,372 Z"/>
        <path fill="rgb(239,211,88)" stroke="none" d="M 905,305 C 806,305 705,336 705,394 705,452 806,483 905,483 1005,483 1105,452 1105,394 1105,336 1005,305 905,305 L 905,305 Z"/>
       </g>
      </g>
     </g>
    </g>
   </g>
  </g>
 </g>
</svg>