<?xml version="1.0" encoding="UTF-8"?>
<!DOCTYPE svg PUBLIC "-//W3C//DTD SVG 1.1//EN" "http://www.w3.org/Graphics/SVG/1.1/DTD/svg11.dtd">
<svg version="1.2" width="132.56mm" height="132.56mm" viewBox="0 0 13256 13256" preserveAspectRatio="xMidYMid" fill-rule="evenodd" stroke-width="28.222" stroke-linejoin="round" xmlns="http://www.w3.org/2000/svg" xmlns:ooo="http://xml.openoffice.org/svg/export" xmlns:xlink="http://www.w3.org/1999/xlink" xmlns:presentation="http://sun.com/xmlns/staroffice/presentation" xmlns:smil="http://www.w3.org/2001/SMIL20/" xmlns:anim="urn:oasis:names:tc:opendocument:xmlns:animation:1.0" xmlns:svg="urn:oasis:names:tc:opendocument:xmlns:svg-compatible:1.0" xml:space="preserve">
 <defs class="ClipPathGroup">
  <clipPath id="presentation_clip_path" clipPathUnits="userSpaceOnUse">
   <rect x="0" y="0" width="13256" height="13256"/>
  </clipPath>
  <clipPath id="presentation_clip_path_shrink" clipPathUnits="userSpaceOnUse">
   <rect x="13" y="13" width="13230" height="13230"/>
  </clipPath>
 </defs>
 <defs class="TextShapeIndex">
  <g ooo:slide="id1" ooo:id-list="id3"/>
 </defs>
 <defs class="EmbeddedBulletChars">
  <g id="bullet-char-template-57356" transform="scale(0.00048828125,-0.00048828125)">
   <path d="M 580,1141 L 1163,571 580,0 -4,571 580,1141 Z"/>
  </g>
  <g id="bullet-char-template-57354" transform="scale(0.00048828125,-0.00048828125)">
   <path d="M 8,1128 L 1137,1128 1137,0 8,0 8,1128 Z"/>
  </g>
  <g id="bullet-char-template-10146" transform="scale(0.00048828125,-0.00048828125)">
   <path d="M 174,0 L 602,739 174,1481 1456,739 174,0 Z M 1358,739 L 309,1346 659,739 1358,739 Z"/>
  </g>
  <g id="bullet-char-template-10132" transform="scale(0.00048828125,-0.00048828125)">
   <path d="M 2015,739 L 1276,0 717,0 1260,543 174,543 174,936 1260,936 717,1481 1274,1481 2015,739 Z"/>
  </g>
  <g id="bullet-char-template-10007" transform="scale(0.00048828125,-0.00048828125)">
   <path d="M 0,-2 C -7,14 -16,27 -25,37 L 356,567 C 262,823 215,952 215,954 215,979 228,992 255,992 264,992 276,990 289,987 310,991 331,999 354,1012 L 381,999 492,748 772,1049 836,1024 860,1049 C 881,1039 901,1025 922,1006 886,937 835,863 770,784 769,783 710,716 594,584 L 774,223 C 774,196 753,168 711,139 L 727,119 C 717,90 699,76 672,76 641,76 570,178 457,381 L 164,-76 C 142,-110 111,-127 72,-127 30,-127 9,-110 8,-76 1,-67 -2,-52 -2,-32 -2,-23 -1,-13 0,-2 Z"/>
  </g>
  <g id="bullet-char-template-10004" transform="scale(0.00048828125,-0.00048828125)">
   <path d="M 285,-33 C 182,-33 111,30 74,156 52,228 41,333 41,471 41,549 55,616 82,672 116,743 169,778 240,778 293,778 328,747 346,684 L 369,508 C 377,444 397,411 428,410 L 1163,1116 C 1174,1127 1196,1133 1229,1133 1271,1133 1292,1118 1292,1087 L 1292,965 C 1292,929 1282,901 1262,881 L 442,47 C 390,-6 338,-33 285,-33 Z"/>
  </g>
  <g id="bullet-char-template-9679" transform="scale(0.00048828125,-0.00048828125)">
   <path d="M 813,0 C 632,0 489,54 383,161 276,268 223,411 223,592 223,773 276,916 383,1023 489,1130 632,1184 813,1184 992,1184 1136,1130 1245,1023 1353,916 1407,772 1407,592 1407,412 1353,268 1245,161 1136,54 992,0 813,0 Z"/>
  </g>
  <g id="bullet-char-template-8226" transform="scale(0.00048828125,-0.00048828125)">
   <path d="M 346,457 C 273,457 209,483 155,535 101,586 74,649 74,723 74,796 101,859 155,911 209,963 273,989 346,989 419,989 480,963 531,910 582,859 608,796 608,723 608,648 583,586 532,535 482,483 420,457 346,457 Z"/>
  </g>
  <g id="bullet-char-template-8211" transform="scale(0.00048828125,-0.00048828125)">
   <path d="M -4,459 L 1135,459 1135,606 -4,606 -4,459 Z"/>
  </g>
  <g id="bullet-char-template-61548" transform="scale(0.00048828125,-0.00048828125)">
   <path d="M 173,740 C 173,903 231,1043 346,1159 462,1274 601,1332 765,1332 928,1332 1067,1274 1183,1159 1299,1043 1357,903 1357,740 1357,577 1299,437 1183,322 1067,206 928,148 765,148 601,148 462,206 346,322 231,437 173,577 173,740 Z"/>
  </g>
 </defs>
 <g>
  <g id="id2" class="Master_Slide">
   <g id="bg-id2" class="Background"/>
   <g id="bo-id2" class="BackgroundObjects"/>
  </g>
 </g>
 <g class="SlideGroup">
  <g>
   <g id="container-id1">
    <g id="id1" class="Slide" clip-path="url(#presentation_clip_path)">
     <g class="Page">
      <g class="Graphic">
       <g id="id3">
        <rect class="BoundingBox" stroke="none" fill="none" x="0" y="0" width="13256" height="13256"/>
        <path fill="rgb(114,103,96)" stroke="none" d="M 4996,5112 L 4996,5112 4996,5112 C 5302,5112 5603,5192 5869,5345 6134,5499 6355,5719 6508,5985 6661,6250 6742,6551 6742,6858 L 6742,6858 6742,10429 3250,10429 3250,6858 3250,6858 C 3250,6858 3250,6858 3250,6858 3250,6551 3331,6250 3484,5985 3637,5719 3858,5499 4123,5345 4389,5192 4689,5112 4996,5112 L 4996,5112 Z"/>
        <path fill="none" stroke="rgb(0,0,0)" stroke-width="181" stroke-linejoin="round" d="M 4996,5112 L 4996,5112 4996,5112 C 5302,5112 5603,5192 5869,5345 6134,5499 6355,5719 6508,5985 6661,6250 6742,6551 6742,6858 L 6742,6858 6742,10429 3250,10429 3250,6858 3250,6858 3250,6858 C 3250,6551 3331,6250 3484,5985 3637,5719 3858,5499 4123,5345 4389,5192 4689,5112 4996,5112 L 4996,5112 Z"/>
        <path fill="rgb(51,71,153)" stroke="none" d="M 7614,10926 L 7614,11896 2347,11896 2347,10918 2347,10918 C 2347,10917 2347,10917 2347,10917 2347,10566 2440,10221 2615,9917 2791,9613 3043,9360 3347,9185 3530,9079 3728,9003 3935,8960 L 3938,8963 3938,8963 C 4019,9035 4107,9099 4200,9153 4437,9290 4705,9362 4977,9362 5250,9362 5518,9290 5754,9153 5849,9098 5939,9033 6020,8960 L 6020,8960 6020,8960 C 6227,9003 6426,9080 6610,9185 6915,9362 7168,9615 7345,9921 7521,10226 7614,10572 7614,10925 7614,10925 7614,10926 7614,10926 L 7614,10926 Z"/>
        <path fill="none" stroke="rgb(0,0,0)" stroke-width="181" stroke-linejoin="miter" d="M 7614,10926 L 7614,11896 2347,11896 2347,10918 2347,10918 C 2347,10917 2347,10917 2347,10917 2347,10566 2440,10221 2615,9917 2791,9613 3043,9360 3347,9185 3530,9079 3728,9003 3935,8960 L 3938,8963 3938,8963 C 4019,9035 4107,9099 4200,9153 4437,9290 4705,9362 4977,9362 5250,9362 5518,9290 5754,9153 5849,9098 5939,9033 6020,8960 L 6020,8960 6020,8960 C 6227,9003 6426,9080 6610,9185 6915,9362 7168,9615 7345,9921 7521,10226 7614,10572 7614,10925 7614,10925 7614,10926 7614,10926 L 7614,10926 Z"/>
        <path fill="rgb(248,208,179)" stroke="none" d="M 6388,6991 L 6388,7029 6388,7029 C 6388,7029 6388,7030 6388,7030 6388,7079 6375,7127 6350,7170 6325,7212 6290,7247 6248,7272 6208,7295 6164,7308 6118,7309 L 6118,7389 C 6118,7916 5834,8354 5331,8440 L 5331,8917 5606,8917 5606,8917 C 5745,8917 5883,8932 6019,8961 L 6019,8961 6019,8961 C 5937,9035 5848,9100 5753,9155 5517,9291 5249,9363 4976,9363 4703,9363 4435,9291 4199,9155 4106,9100 4018,9037 3937,8964 L 3934,8961 3934,8961 C 4069,8932 4207,8918 4346,8918 4346,8918 4347,8918 4347,8918 L 4629,8918 4629,8442 4629,8442 C 4522,8425 4419,8388 4325,8334 4216,8271 4121,8185 4047,8082 3914,7895 3842,7654 3842,7390 L 3842,7311 3842,7311 C 3793,7311 3745,7298 3702,7273 3660,7248 3624,7213 3600,7170 3575,7128 3562,7079 3562,7030 3562,7030 3562,7030 3562,7030 L 3562,6992 3562,6992 C 3562,6992 3562,6992 3562,6992 3562,6943 3575,6894 3600,6852 3624,6809 3660,6774 3702,6749 3745,6725 3793,6712 3842,6712 L 3842,6712 C 3824,6631 3813,6548 3811,6465 3819,6467 4176,6572 4543,6477 L 4543,6477 4543,6477 C 4631,6456 4715,6423 4793,6378 4908,6312 5007,6222 5085,6115 5162,6008 5323,6425 5722,6498 L 5722,6498 5722,6498 C 5778,6508 5834,6513 5890,6513 5936,6513 5981,6510 6026,6503 L 6105,6716 6105,6716 C 6106,6716 6107,6716 6107,6716 6157,6716 6206,6729 6249,6754 6269,6766 6287,6780 6304,6796 L 6304,6796 C 6322,6814 6338,6834 6351,6856 6375,6897 6387,6944 6388,6991 L 6388,6991 Z"/>
        <path fill="none" stroke="rgb(0,0,0)" stroke-width="181" stroke-linejoin="round" d="M 6388,6991 L 6388,7029 6388,7029 C 6388,7029 6388,7030 6388,7030 6388,7079 6375,7127 6350,7170 6325,7212 6290,7247 6248,7272 6208,7295 6164,7308 6118,7309 L 6118,7389 C 6118,7916 5834,8354 5331,8440 L 5331,8917 5606,8917 5606,8917 C 5745,8917 5883,8932 6019,8961 L 6019,8961 6019,8961 C 5937,9035 5848,9100 5753,9155 5517,9291 5249,9363 4976,9363 4703,9363 4435,9291 4199,9155 4106,9100 4018,9037 3937,8964 L 3934,8961 3934,8961 C 4069,8932 4207,8918 4346,8918 4346,8918 4347,8918 4347,8918 L 4629,8918 4629,8442 4629,8442 C 4522,8425 4419,8388 4325,8334 4216,8271 4121,8185 4047,8082 3914,7895 3842,7654 3842,7390 L 3842,7311 3842,7311 C 3793,7311 3745,7298 3702,7273 3660,7248 3624,7213 3600,7170 3575,7128 3562,7079 3562,7030 L 3562,7030 3562,6992 3562,6992 3562,6992 C 3562,6943 3575,6894 3600,6852 3624,6809 3660,6774 3702,6749 3745,6725 3793,6712 3842,6712 L 3842,6712 C 3824,6631 3813,6548 3811,6465 3819,6467 4176,6572 4543,6477 L 4543,6477 4543,6477 C 4631,6456 4715,6423 4793,6378 4908,6312 5007,6222 5085,6115 5162,6008 5323,6425 5722,6498 L 5722,6498 5722,6498 C 5778,6508 5834,6513 5890,6513 5936,6513 5981,6510 6026,6503 L 6105,6716 6105,6716 C 6106,6716 6107,6716 6107,6716 6157,6716 6206,6729 6249,6754 6269,6766 6287,6780 6304,6796 L 6304,6796 C 6322,6814 6338,6834 6351,6856 6375,6897 6387,6944 6388,6991 L 6388,6991 Z"/>
        <path fill="rgb(255,255,255)" stroke="none" d="M 11747,3870 L 11747,3870 C 11747,4261 11644,4646 11449,4985 11253,5324 10971,5605 10632,5801 10293,5997 9908,6100 9517,6100 9162,6100 8811,6015 8495,5852 L 7287,6266 7859,5360 7859,5360 C 7756,5245 7664,5120 7587,4985 7391,4646 7288,4262 7288,3870 7288,3479 7391,3094 7587,2755 7783,2416 8064,2135 8403,1939 8742,1743 9127,1640 9518,1640 9910,1640 10294,1743 10633,1939 10972,2135 11254,2416 11449,2755 11645,3094 11748,3479 11748,3870 L 11747,3870 Z"/>
        <path fill="none" stroke="rgb(0,0,0)" stroke-width="181" stroke-linejoin="round" stroke-linecap="round" d="M 11747,3870 L 11747,3870 C 11747,4261 11644,4646 11449,4985 11253,5324 10971,5605 10632,5801 10293,5997 9908,6100 9517,6100 9162,6100 8811,6015 8495,5852 L 7287,6266 7859,5360 7859,5360 C 7756,5245 7664,5120 7587,4985 7391,4646 7288,4262 7288,3870 7288,3479 7391,3094 7587,2755 7783,2416 8064,2135 8403,1939 8742,1743 9127,1640 9518,1640 9910,1640 10294,1743 10633,1939 10972,2135 11254,2416 11449,2755 11645,3094 11748,3479 11748,3870 L 11747,3870 Z"/>
        <path fill="rgb(251,137,0)" stroke="none" d="M 10954,3873 C 10954,4125 10887,4373 10761,4591 10635,4810 10454,4991 10236,5117 10017,5243 9770,5310 9517,5310 9265,5310 9018,5243 8799,5117 8581,4991 8400,4810 8273,4591 8147,4373 8081,4125 8081,3873 8081,3621 8147,3373 8273,3155 8400,2937 8581,2755 8799,2629 9018,2503 9265,2437 9517,2437 9770,2437 10017,2503 10236,2629 10454,2755 10635,2937 10761,3155 10887,3373 10954,3621 10954,3873 L 10954,3873 Z"/>
        <path fill="rgb(233,70,71)" stroke="none" d="M 8866,3542 C 8866,3542 8986,3652 9176,3542 Z"/>
        <path fill="none" stroke="rgb(0,0,0)" stroke-width="181" stroke-linejoin="round" stroke-linecap="round" d="M 8866,3542 C 8866,3542 8986,3652 9176,3542"/>
        <path fill="rgb(233,70,71)" stroke="none" d="M 9859,3542 C 9859,3542 9979,3652 10169,3542 Z"/>
        <path fill="none" stroke="rgb(0,0,0)" stroke-width="181" stroke-linejoin="round" stroke-linecap="round" d="M 9859,3542 C 9859,3542 9979,3652 10169,3542"/>
        <path fill="none" stroke="rgb(0,0,0)" stroke-width="181" stroke-linejoin="round" stroke-linecap="round" d="M 9062,4552 C 9062,4552 9501,3979 10016,4552"/>
        <path fill="none" stroke="rgb(0,0,0)" stroke-width="181" stroke-linejoin="round" stroke-linecap="round" d="M 5031,9890 C 5031,9895 5029,9900 5027,9904 5024,9909 5021,9912 5017,9915 5012,9917 5008,9918 5003,9918 4998,9918 4993,9917 4989,9915 4985,9912 4981,9909 4979,9904 4976,9900 4975,9895 4975,9890 4975,9886 4976,9881 4979,9877 4981,9872 4985,9869 4989,9866 4993,9864 4998,9863 5003,9863 5008,9863 5012,9864 5017,9866 5021,9869 5024,9872 5027,9877 5029,9881 5031,9886 5031,9890 Z"/>
        <path fill="none" stroke="rgb(0,0,0)" stroke-width="181" stroke-linejoin="round" stroke-linecap="round" d="M 5031,10580 C 5031,10585 5029,10589 5027,10594 5024,10598 5021,10601 5017,10604 5012,10606 5008,10607 5003,10607 4998,10607 4993,10606 4989,10604 4985,10601 4981,10598 4979,10594 4976,10589 4975,10585 4975,10580 4975,10575 4976,10570 4979,10566 4981,10562 4985,10558 4989,10556 4993,10553 4998,10552 5003,10552 5008,10552 5012,10553 5017,10556 5021,10558 5024,10562 5027,10566 5029,10570 5031,10575 5031,10580 Z"/>
        <path fill="none" stroke="rgb(0,0,0)" stroke-width="181" stroke-linejoin="round" stroke-linecap="round" d="M 5031,11269 C 5031,11273 5029,11278 5027,11282 5024,11287 5021,11290 5017,11293 5012,11295 5008,11296 5003,11296 4998,11296 4993,11295 4989,11293 4985,11290 4981,11287 4979,11282 4976,11278 4975,11273 4975,11269 4975,11264 4976,11259 4979,11255 4981,11250 4985,11247 4989,11245 4993,11242 4998,11241 5003,11241 5008,11241 5012,11242 5017,11245 5021,11247 5024,11250 5027,11255 5029,11259 5031,11264 5031,11269 Z"/>
       </g>
      </g>
     </g>
    </g>
   </g>
  </g>
 </g>
</svg>