<?xml version="1.0" encoding="UTF-8"?>
<!DOCTYPE svg PUBLIC "-//W3C//DTD SVG 1.1//EN" "http://www.w3.org/Graphics/SVG/1.1/DTD/svg11.dtd">
<svg version="1.2" width="132.56mm" height="132.56mm" viewBox="0 0 13256 13256" preserveAspectRatio="xMidYMid" fill-rule="evenodd" stroke-width="28.222" stroke-linejoin="round" xmlns="http://www.w3.org/2000/svg" xmlns:ooo="http://xml.openoffice.org/svg/export" xmlns:xlink="http://www.w3.org/1999/xlink" xmlns:presentation="http://sun.com/xmlns/staroffice/presentation" xmlns:smil="http://www.w3.org/2001/SMIL20/" xmlns:anim="urn:oasis:names:tc:opendocument:xmlns:animation:1.0" xmlns:svg="urn:oasis:names:tc:opendocument:xmlns:svg-compatible:1.0" xml:space="preserve">
 <defs class="ClipPathGroup">
  <clipPath id="presentation_clip_path" clipPathUnits="userSpaceOnUse">
   <rect x="0" y="0" width="13256" height="13256"/>
  </clipPath>
  <clipPath id="presentation_clip_path_shrink" clipPathUnits="userSpaceOnUse">
   <rect x="13" y="13" width="13230" height="13230"/>
  </clipPath>
 </defs>
 <defs class="TextShapeIndex">
  <g ooo:slide="id1" ooo:id-list="id3"/>
 </defs>
 <defs class="EmbeddedBulletChars">
  <g id="bullet-char-template-57356" transform="scale(0.00048828125,-0.00048828125)">
   <path d="M 580,1141 L 1163,571 580,0 -4,571 580,1141 Z"/>
  </g>
  <g id="bullet-char-template-57354" transform="scale(0.00048828125,-0.00048828125)">
   <path d="M 8,1128 L 1137,1128 1137,0 8,0 8,1128 Z"/>
  </g>
  <g id="bullet-char-template-10146" transform="scale(0.00048828125,-0.00048828125)">
   <path d="M 174,0 L 602,739 174,1481 1456,739 174,0 Z M 1358,739 L 309,1346 659,739 1358,739 Z"/>
  </g>
  <g id="bullet-char-template-10132" transform="scale(0.00048828125,-0.00048828125)">
   <path d="M 2015,739 L 1276,0 717,0 1260,543 174,543 174,936 1260,936 717,1481 1274,1481 2015,739 Z"/>
  </g>
  <g id="bullet-char-template-10007" transform="scale(0.00048828125,-0.00048828125)">
   <path d="M 0,-2 C -7,14 -16,27 -25,37 L 356,567 C 262,823 215,952 215,954 215,979 228,992 255,992 264,992 276,990 289,987 310,991 331,999 354,1012 L 381,999 492,748 772,1049 836,1024 860,1049 C 881,1039 901,1025 922,1006 886,937 835,863 770,784 769,783 710,716 594,584 L 774,223 C 774,196 753,168 711,139 L 727,119 C 717,90 699,76 672,76 641,76 570,178 457,381 L 164,-76 C 142,-110 111,-127 72,-127 30,-127 9,-110 8,-76 1,-67 -2,-52 -2,-32 -2,-23 -1,-13 0,-2 Z"/>
  </g>
  <g id="bullet-char-template-10004" transform="scale(0.00048828125,-0.00048828125)">
   <path d="M 285,-33 C 182,-33 111,30 74,156 52,228 41,333 41,471 41,549 55,616 82,672 116,743 169,778 240,778 293,778 328,747 346,684 L 369,508 C 377,444 397,411 428,410 L 1163,1116 C 1174,1127 1196,1133 1229,1133 1271,1133 1292,1118 1292,1087 L 1292,965 C 1292,929 1282,901 1262,881 L 442,47 C 390,-6 338,-33 285,-33 Z"/>
  </g>
  <g id="bullet-char-template-9679" transform="scale(0.00048828125,-0.00048828125)">
   <path d="M 813,0 C 632,0 489,54 383,161 276,268 223,411 223,592 223,773 276,916 383,1023 489,1130 632,1184 813,1184 992,1184 1136,1130 1245,1023 1353,916 1407,772 1407,592 1407,412 1353,268 1245,161 1136,54 992,0 813,0 Z"/>
  </g>
  <g id="bullet-char-template-8226" transform="scale(0.00048828125,-0.00048828125)">
   <path d="M 346,457 C 273,457 209,483 155,535 101,586 74,649 74,723 74,796 101,859 155,911 209,963 273,989 346,989 419,989 480,963 531,910 582,859 608,796 608,723 608,648 583,586 532,535 482,483 420,457 346,457 Z"/>
  </g>
  <g id="bullet-char-template-8211" transform="scale(0.00048828125,-0.00048828125)">
   <path d="M -4,459 L 1135,459 1135,606 -4,606 -4,459 Z"/>
  </g>
  <g id="bullet-char-template-61548" transform="scale(0.00048828125,-0.00048828125)">
   <path d="M 173,740 C 173,903 231,1043 346,1159 462,1274 601,1332 765,1332 928,1332 1067,1274 1183,1159 1299,1043 1357,903 1357,740 1357,577 1299,437 1183,322 1067,206 928,148 765,148 601,148 462,206 346,322 231,437 173,577 173,740 Z"/>
  </g>
 </defs>
 <g>
  <g id="id2" class="Master_Slide">
   <g id="bg-id2" class="Background"/>
   <g id="bo-id2" class="BackgroundObjects"/>
  </g>
 </g>
 <g class="SlideGroup">
  <g>
   <g id="container-id1">
    <g id="id1" class="Slide" clip-path="url(#presentation_clip_path)">
     <g class="Page">
      <g class="Graphic">
       <g id="id3">
        <rect class="BoundingBox" stroke="none" fill="none" x="0" y="0" width="13256" height="13256"/>
        <path fill="rgb(251,137,0)" stroke="none" d="M 8710,6785 C 8101,7434 8005,7758 8028,8154 L 8028,8154 C 8035,8205 8047,8256 8064,8304 L 5190,8304 C 5203,8257 5225,8208 5226,8155 5236,7721 5137,7427 4527,6766 L 4527,6766 C 4387,6613 4263,6446 4160,6267 3915,5843 3786,5362 3786,4873 3786,4860 3786,4846 3787,4833 3807,3318 5056,2081 6589,2060 8176,2039 9470,3306 9470,4872 L 9470,4872 C 9470,4872 9470,4872 9470,4872 9470,5361 9341,5841 9097,6265 8989,6453 8859,6627 8710,6785 L 8710,6785 Z"/>
        <path fill="none" stroke="rgb(0,0,0)" stroke-width="168" stroke-linejoin="miter" d="M 8710,6785 C 8101,7434 8005,7758 8028,8154 L 8028,8154 C 8035,8205 8047,8256 8064,8304 L 5190,8304 C 5203,8257 5225,8208 5226,8155 5236,7721 5137,7427 4527,6766 L 4527,6766 C 4387,6613 4263,6446 4160,6267 3915,5843 3786,5362 3786,4873 3786,4860 3786,4846 3787,4833 3807,3318 5056,2081 6589,2060 8176,2039 9470,3306 9470,4872 L 9470,4872 C 9470,4872 9470,4872 9470,4872 9470,5361 9341,5841 9097,6265 8989,6453 8859,6627 8710,6785 Z"/>
        <path fill="rgb(51,71,153)" stroke="none" d="M 9004,8924 L 9004,8924 C 9004,8924 9004,8925 9004,8925 9004,9025 8981,9122 8938,9212 L 8938,9212 C 8931,9224 8925,9237 8918,9250 8894,9290 8866,9328 8835,9362 L 8835,9362 C 8796,9404 8751,9440 8702,9469 8618,9517 8523,9543 8427,9543 L 4828,9543 C 4602,9543 4406,9404 4311,9199 L 4311,9199 C 4271,9113 4251,9019 4251,8924 4251,8924 4251,8923 4251,8923 L 4251,8923 C 4251,8921 4251,8920 4251,8918 4251,8806 4280,8696 4336,8599 4360,8558 4388,8520 4420,8485 L 4420,8485 C 4459,8443 4503,8407 4552,8379 4636,8330 4732,8304 4828,8304 L 8427,8304 C 8745,8304 9004,8582 9004,8924 L 9004,8924 Z"/>
        <path fill="none" stroke="rgb(0,0,0)" stroke-width="180" stroke-linejoin="miter" d="M 9004,8924 L 9004,8924 C 9004,8924 9004,8925 9004,8925 9004,9025 8981,9122 8938,9212 L 8938,9212 C 8931,9224 8925,9237 8918,9250 8894,9290 8866,9328 8835,9362 L 8835,9362 C 8796,9404 8751,9440 8702,9469 8618,9517 8523,9543 8427,9543 L 4828,9543 C 4602,9543 4406,9404 4311,9199 L 4311,9199 C 4271,9113 4251,9019 4251,8924 4251,8924 4251,8923 4251,8923 L 4251,8923 C 4251,8921 4251,8920 4251,8918 4251,8806 4280,8696 4336,8599 4360,8558 4388,8520 4420,8485 L 4420,8485 C 4459,8443 4503,8407 4552,8379 4636,8330 4732,8304 4828,8304 L 8427,8304 C 8745,8304 9004,8582 9004,8924 Z"/>
        <path fill="rgb(51,71,153)" stroke="none" d="M 6627,10490 L 8186,10490 C 8440,10490 8646,10284 8646,10030 8646,9776 8440,9571 8186,9571 L 5068,9571 C 4814,9571 4609,9776 4609,10030 4609,10284 4814,10490 5068,10490 L 6627,10490 Z"/>
        <path fill="none" stroke="rgb(0,0,0)" stroke-width="180" stroke-linejoin="miter" d="M 6627,10490 L 8186,10490 C 8440,10490 8646,10284 8646,10030 8646,9776 8440,9571 8186,9571 L 5068,9571 C 4814,9571 4609,9776 4609,10030 4609,10284 4814,10490 5068,10490 L 6627,10490 Z"/>
        <path fill="rgb(51,71,153)" stroke="none" d="M 5680,10517 L 7575,10517 7575,10561 7575,10561 C 7575,10672 7545,10782 7490,10878 7434,10975 7354,11055 7257,11111 7161,11166 7051,11196 6940,11196 L 6314,11196 6314,11196 C 6203,11196 6093,11166 5997,11111 5900,11055 5820,10975 5764,10878 5709,10782 5679,10672 5679,10561 L 5679,10517 5680,10517 5680,10517 Z"/>
        <path fill="none" stroke="rgb(0,0,0)" stroke-width="180" stroke-linejoin="miter" d="M 5680,10517 L 7575,10517 7575,10561 7575,10561 C 7575,10672 7545,10782 7490,10878 7434,10975 7354,11055 7257,11111 7161,11166 7051,11196 6940,11196 L 6314,11196 6314,11196 C 6203,11196 6093,11166 5997,11111 5900,11055 5820,10975 5764,10878 5709,10782 5679,10672 5679,10561 L 5679,10517 5680,10517 Z"/>
        <path fill="none" stroke="rgb(0,0,0)" stroke-width="181" stroke-linejoin="miter" stroke-linecap="round" d="M 3773,2652 L 2981,2060"/>
        <path fill="none" stroke="rgb(0,0,0)" stroke-width="181" stroke-linejoin="miter" stroke-linecap="round" d="M 3144,4423 L 2157,4368"/>
        <path fill="none" stroke="rgb(0,0,0)" stroke-width="181" stroke-linejoin="miter" stroke-linecap="round" d="M 3400,6139 L 2561,6662"/>
        <path fill="none" stroke="rgb(0,0,0)" stroke-width="181" stroke-linejoin="miter" stroke-linecap="round" d="M 9482,2652 L 10274,2060"/>
        <path fill="none" stroke="rgb(0,0,0)" stroke-width="181" stroke-linejoin="miter" stroke-linecap="round" d="M 10111,4423 L 11098,4368"/>
        <path fill="none" stroke="rgb(0,0,0)" stroke-width="181" stroke-linejoin="miter" stroke-linecap="round" d="M 9855,6139 L 10694,6662"/>
        <path fill="rgb(51,71,153)" stroke="none" d="M 8345,4793 C 8345,5095 8265,5391 8115,5652 7964,5913 7747,6130 7486,6281 7225,6431 6929,6511 6628,6511 6326,6511 6030,6431 5769,6281 5508,6130 5291,5913 5140,5652 4990,5391 4910,5095 4910,4793 4910,4492 4990,4196 5140,3935 5291,3674 5508,3457 5769,3306 6030,3156 6326,3076 6628,3076 6929,3076 7225,3156 7486,3306 7747,3457 7964,3674 8115,3935 8265,4196 8345,4492 8345,4793 L 8345,4793 Z"/>
        <path fill="none" stroke="rgb(0,0,0)" stroke-width="180" stroke-linejoin="miter" d="M 8345,4793 C 8345,5095 8265,5391 8115,5652 7964,5913 7747,6130 7486,6281 7225,6431 6929,6511 6628,6511 6326,6511 6030,6431 5769,6281 5508,6130 5291,5913 5140,5652 4990,5391 4910,5095 4910,4793 4910,4492 4990,4196 5140,3935 5291,3674 5508,3457 5769,3306 6030,3156 6326,3076 6628,3076 6929,3076 7225,3156 7486,3306 7747,3457 7964,3674 8115,3935 8265,4196 8345,4492 8345,4793 L 8345,4793 Z"/>
        <path fill="rgb(255,255,255)" stroke="none" d="M 7833,4793 C 7833,5005 7777,5213 7671,5396 7566,5579 7413,5732 7230,5837 7047,5943 6839,5999 6628,5999 6416,5999 6208,5943 6025,5837 5842,5732 5689,5579 5584,5396 5478,5213 5422,5005 5422,4793 5422,4582 5478,4374 5584,4191 5689,4008 5842,3855 6025,3750 6208,3644 6416,3588 6628,3588 6839,3588 7047,3644 7230,3750 7413,3855 7566,4008 7671,4191 7777,4374 7833,4582 7833,4793 L 7833,4793 Z"/>
        <path fill="none" stroke="rgb(0,0,0)" stroke-width="181" stroke-linejoin="miter" d="M 7833,4793 C 7833,5005 7777,5213 7671,5396 7566,5579 7413,5732 7230,5837 7047,5943 6839,5999 6628,5999 6416,5999 6208,5943 6025,5837 5842,5732 5689,5579 5584,5396 5478,5213 5422,5005 5422,4793 5422,4582 5478,4374 5584,4191 5689,4008 5842,3855 6025,3750 6208,3644 6416,3588 6628,3588 6839,3588 7047,3644 7230,3750 7413,3855 7566,4008 7671,4191 7777,4374 7833,4582 7833,4793 L 7833,4793 Z"/>
        <path fill="rgb(0,0,0)" stroke="none" d="M 6516,5087 L 6516,4990 C 6516,4876 6514,4812 6510,4730 L 6362,4711 6362,4634 6733,4504 6767,4525 6760,4814 6760,5087 C 6760,5177 6761,5309 6763,5411 L 6889,5437 6889,5521 6378,5521 6378,5437 6513,5410 C 6515,5308 6516,5177 6516,5087 Z M 6480,4164 C 6480,4161 6480,4159 6480,4156 6480,4128 6487,4101 6501,4078 6514,4054 6534,4034 6558,4020 6581,4007 6608,4000 6636,4000 6663,4000 6690,4007 6714,4020 6738,4034 6757,4054 6771,4078 6785,4101 6792,4128 6792,4156 6792,4183 6785,4210 6771,4234 6757,4257 6738,4277 6714,4291 6690,4304 6663,4312 6636,4312 6636,4312 6636,4312 6636,4312 6633,4312 6630,4312 6627,4312 6602,4312 6576,4305 6554,4292 6531,4279 6513,4261 6500,4238 6487,4216 6480,4190 6480,4164 L 6480,4164 Z"/>
       </g>
      </g>
     </g>
    </g>
   </g>
  </g>
 </g>
</svg>