<?xml version="1.0" encoding="UTF-8"?>
<!DOCTYPE svg PUBLIC "-//W3C//DTD SVG 1.1//EN" "http://www.w3.org/Graphics/SVG/1.1/DTD/svg11.dtd">
<svg version="1.2" width="132.56mm" height="132.56mm" viewBox="0 0 13256 13256" preserveAspectRatio="xMidYMid" fill-rule="evenodd" stroke-width="28.222" stroke-linejoin="round" xmlns="http://www.w3.org/2000/svg" xmlns:ooo="http://xml.openoffice.org/svg/export" xmlns:xlink="http://www.w3.org/1999/xlink" xmlns:presentation="http://sun.com/xmlns/staroffice/presentation" xmlns:smil="http://www.w3.org/2001/SMIL20/" xmlns:anim="urn:oasis:names:tc:opendocument:xmlns:animation:1.0" xmlns:svg="urn:oasis:names:tc:opendocument:xmlns:svg-compatible:1.0" xml:space="preserve">
 <defs class="ClipPathGroup">
  <clipPath id="presentation_clip_path" clipPathUnits="userSpaceOnUse">
   <rect x="0" y="0" width="13256" height="13256"/>
  </clipPath>
  <clipPath id="presentation_clip_path_shrink" clipPathUnits="userSpaceOnUse">
   <rect x="13" y="13" width="13230" height="13230"/>
  </clipPath>
 </defs>
 <defs class="TextShapeIndex">
  <g ooo:slide="id1" ooo:id-list="id3"/>
 </defs>
 <defs class="EmbeddedBulletChars">
  <g id="bullet-char-template-57356" transform="scale(0.00048828125,-0.00048828125)">
   <path d="M 580,1141 L 1163,571 580,0 -4,571 580,1141 Z"/>
  </g>
  <g id="bullet-char-template-57354" transform="scale(0.00048828125,-0.00048828125)">
   <path d="M 8,1128 L 1137,1128 1137,0 8,0 8,1128 Z"/>
  </g>
  <g id="bullet-char-template-10146" transform="scale(0.00048828125,-0.00048828125)">
   <path d="M 174,0 L 602,739 174,1481 1456,739 174,0 Z M 1358,739 L 309,1346 659,739 1358,739 Z"/>
  </g>
  <g id="bullet-char-template-10132" transform="scale(0.00048828125,-0.00048828125)">
   <path d="M 2015,739 L 1276,0 717,0 1260,543 174,543 174,936 1260,936 717,1481 1274,1481 2015,739 Z"/>
  </g>
  <g id="bullet-char-template-10007" transform="scale(0.00048828125,-0.00048828125)">
   <path d="M 0,-2 C -7,14 -16,27 -25,37 L 356,567 C 262,823 215,952 215,954 215,979 228,992 255,992 264,992 276,990 289,987 310,991 331,999 354,1012 L 381,999 492,748 772,1049 836,1024 860,1049 C 881,1039 901,1025 922,1006 886,937 835,863 770,784 769,783 710,716 594,584 L 774,223 C 774,196 753,168 711,139 L 727,119 C 717,90 699,76 672,76 641,76 570,178 457,381 L 164,-76 C 142,-110 111,-127 72,-127 30,-127 9,-110 8,-76 1,-67 -2,-52 -2,-32 -2,-23 -1,-13 0,-2 Z"/>
  </g>
  <g id="bullet-char-template-10004" transform="scale(0.00048828125,-0.00048828125)">
   <path d="M 285,-33 C 182,-33 111,30 74,156 52,228 41,333 41,471 41,549 55,616 82,672 116,743 169,778 240,778 293,778 328,747 346,684 L 369,508 C 377,444 397,411 428,410 L 1163,1116 C 1174,1127 1196,1133 1229,1133 1271,1133 1292,1118 1292,1087 L 1292,965 C 1292,929 1282,901 1262,881 L 442,47 C 390,-6 338,-33 285,-33 Z"/>
  </g>
  <g id="bullet-char-template-9679" transform="scale(0.00048828125,-0.00048828125)">
   <path d="M 813,0 C 632,0 489,54 383,161 276,268 223,411 223,592 223,773 276,916 383,1023 489,1130 632,1184 813,1184 992,1184 1136,1130 1245,1023 1353,916 1407,772 1407,592 1407,412 1353,268 1245,161 1136,54 992,0 813,0 Z"/>
  </g>
  <g id="bullet-char-template-8226" transform="scale(0.00048828125,-0.00048828125)">
   <path d="M 346,457 C 273,457 209,483 155,535 101,586 74,649 74,723 74,796 101,859 155,911 209,963 273,989 346,989 419,989 480,963 531,910 582,859 608,796 608,723 608,648 583,586 532,535 482,483 420,457 346,457 Z"/>
  </g>
  <g id="bullet-char-template-8211" transform="scale(0.00048828125,-0.00048828125)">
   <path d="M -4,459 L 1135,459 1135,606 -4,606 -4,459 Z"/>
  </g>
  <g id="bullet-char-template-61548" transform="scale(0.00048828125,-0.00048828125)">
   <path d="M 173,740 C 173,903 231,1043 346,1159 462,1274 601,1332 765,1332 928,1332 1067,1274 1183,1159 1299,1043 1357,903 1357,740 1357,577 1299,437 1183,322 1067,206 928,148 765,148 601,148 462,206 346,322 231,437 173,577 173,740 Z"/>
  </g>
 </defs>
 <g>
  <g id="id2" class="Master_Slide">
   <g id="bg-id2" class="Background"/>
   <g id="bo-id2" class="BackgroundObjects"/>
  </g>
 </g>
 <g class="SlideGroup">
  <g>
   <g id="container-id1">
    <g id="id1" class="Slide" clip-path="url(#presentation_clip_path)">
     <g class="Page">
      <g class="Graphic">
       <g id="id3">
        <rect class="BoundingBox" stroke="none" fill="none" x="0" y="0" width="13256" height="13256"/>
        <path fill="rgb(51,71,153)" stroke="none" d="M 6514,11201 L 8865,11366 C 9153,11386 9402,11169 9422,10882 L 9956,3283 C 9976,2996 9760,2747 9472,2726 L 4771,2396 C 4483,2376 4234,2592 4214,2880 L 3679,10478 C 3659,10766 3876,11015 4163,11035 L 6514,11201 Z"/>
        <path fill="none" stroke="rgb(0,0,0)" stroke-width="181" stroke-linejoin="round" stroke-linecap="round" d="M 6514,11201 L 8865,11366 C 9153,11386 9402,11169 9422,10882 L 9956,3283 C 9976,2996 9760,2747 9472,2726 L 4771,2396 C 4483,2376 4234,2592 4214,2880 L 3679,10478 C 3659,10766 3876,11015 4163,11035 L 6514,11201 Z"/>
        <path fill="rgb(255,255,255)" stroke="none" d="M 6600,9975 L 8554,10113 C 8789,10129 8992,9953 9008,9718 L 9436,3638 C 9452,3404 9276,3201 9041,3184 L 5133,2909 C 4899,2893 4696,3069 4679,3304 L 4252,9384 C 4236,9618 4412,9822 4646,9838 L 6600,9975 Z"/>
        <path fill="none" stroke="rgb(0,0,0)" stroke-width="181" stroke-linejoin="miter" d="M 6600,9975 L 8554,10113 C 8789,10129 8992,9953 9008,9718 L 9436,3638 C 9452,3404 9276,3201 9041,3184 L 5133,2909 C 4899,2893 4696,3069 4679,3304 L 4252,9384 C 4236,9618 4412,9822 4646,9838 L 6600,9975 Z"/>
        <path fill="rgb(252,252,252)" stroke="none" d="M 6894,10584 C 6894,10644 6878,10703 6848,10755 6819,10807 6776,10850 6724,10879 6672,10909 6613,10925 6553,10925 6493,10925 6434,10909 6383,10879 6331,10850 6288,10807 6258,10755 6228,10703 6212,10644 6212,10584 6212,10524 6228,10465 6258,10414 6288,10362 6331,10319 6383,10289 6434,10259 6493,10243 6553,10243 6613,10243 6672,10259 6724,10289 6776,10319 6819,10362 6848,10414 6878,10465 6894,10524 6894,10584 L 6894,10584 Z"/>
        <path fill="none" stroke="rgb(0,0,0)" stroke-width="181" stroke-linejoin="round" stroke-linecap="round" d="M 6894,10584 C 6894,10644 6878,10703 6848,10755 6819,10807 6776,10850 6724,10879 6672,10909 6613,10925 6553,10925 6493,10925 6434,10909 6383,10879 6331,10850 6288,10807 6258,10755 6228,10703 6212,10644 6212,10584 6212,10524 6228,10465 6258,10414 6288,10362 6331,10319 6383,10289 6434,10259 6493,10243 6553,10243 6613,10243 6672,10259 6724,10289 6776,10319 6819,10362 6848,10414 6878,10465 6894,10524 6894,10584 Z"/>
        <path fill="rgb(255,255,255)" stroke="none" d="M 12107,5964 C 12107,7046 11075,7922 9803,7922 9243,7922 8730,7752 8331,7470 L 7158,7922 7705,6773 7705,6773 C 7571,6525 7501,6247 7501,5964 7501,4883 8532,4007 9804,4007 11076,4007 12107,4883 12107,5964 L 12107,5964 Z"/>
        <path fill="none" stroke="rgb(0,0,0)" stroke-width="181" stroke-linejoin="round" stroke-linecap="round" d="M 12107,5964 C 12107,7046 11075,7922 9803,7922 9243,7922 8730,7752 8331,7470 L 7158,7922 7705,6773 7705,6773 C 7571,6525 7501,6247 7501,5964 7501,4883 8532,4007 9804,4007 11076,4007 12107,4883 12107,5964 Z"/>
        <path fill="rgb(251,137,0)" stroke="none" d="M 8422,5244 L 11235,5244 11235,5244 11235,5244 C 11247,5244 11258,5247 11268,5253 11278,5259 11287,5267 11292,5277 11298,5287 11301,5299 11301,5310 L 11301,5310 11301,5345 11301,5345 C 11301,5356 11298,5368 11292,5378 11287,5388 11278,5396 11268,5402 11258,5407 11247,5410 11235,5410 L 11235,5410 8419,5410 8419,5410 8419,5410 C 8407,5410 8396,5407 8386,5402 8376,5396 8368,5388 8362,5378 8356,5368 8353,5356 8353,5345 L 8353,5345 8353,5313 8353,5313 8353,5313 C 8353,5301 8356,5289 8362,5279 8368,5268 8377,5260 8387,5254 8398,5247 8410,5244 8422,5244 L 8422,5244 Z"/>
        <path fill="rgb(251,137,0)" stroke="none" d="M 8422,5725 L 11235,5725 11235,5725 11235,5725 C 11247,5725 11258,5728 11268,5733 11278,5739 11287,5747 11292,5757 11298,5767 11301,5779 11301,5790 L 11301,5790 11301,5825 11301,5825 C 11301,5836 11298,5848 11292,5858 11287,5868 11278,5876 11268,5882 11258,5888 11247,5891 11235,5891 L 11235,5891 8419,5891 8419,5891 8419,5891 C 8407,5891 8396,5888 8386,5882 8376,5876 8368,5868 8362,5858 8356,5848 8353,5836 8353,5825 L 8353,5825 8353,5793 8353,5793 8353,5793 C 8353,5781 8356,5769 8362,5759 8368,5748 8377,5740 8387,5734 8398,5728 8410,5725 8422,5725 L 8422,5725 Z"/>
        <path fill="rgb(251,137,0)" stroke="none" d="M 8422,6204 L 11235,6204 11235,6204 11235,6204 C 11247,6204 11258,6207 11268,6213 11278,6219 11287,6227 11292,6237 11298,6247 11301,6259 11301,6270 L 11301,6270 11301,6304 11301,6304 C 11301,6316 11298,6327 11292,6337 11287,6347 11278,6356 11268,6362 11258,6367 11247,6370 11235,6370 L 11235,6370 8419,6370 8419,6370 8419,6370 C 8407,6370 8396,6367 8386,6362 8376,6356 8368,6347 8362,6337 8356,6327 8353,6316 8353,6304 L 8353,6304 8353,6273 8353,6273 C 8353,6273 8353,6273 8353,6273 8353,6261 8356,6249 8362,6238 8368,6228 8377,6219 8387,6213 8398,6207 8410,6204 8422,6204 8422,6204 8422,6204 8422,6204 L 8422,6204 Z"/>
        <path fill="rgb(251,137,0)" stroke="none" d="M 8422,6685 L 10746,6685 10746,6685 10746,6685 C 10758,6685 10769,6688 10779,6694 10789,6700 10798,6708 10803,6718 10809,6728 10812,6739 10812,6751 L 10812,6751 10812,6786 10812,6786 C 10812,6798 10809,6809 10803,6819 10798,6829 10789,6838 10779,6843 10769,6849 10758,6852 10746,6852 L 10746,6852 8418,6852 8418,6852 8418,6852 C 8407,6852 8395,6849 8385,6843 8375,6838 8367,6829 8361,6819 8355,6809 8352,6798 8352,6786 L 8352,6786 8352,6754 8352,6754 C 8352,6754 8352,6754 8352,6754 8352,6742 8355,6730 8361,6719 8367,6709 8376,6700 8386,6694 8397,6688 8409,6685 8421,6685 8421,6685 8421,6685 8422,6685 L 8422,6685 Z"/>
        <path fill="none" stroke="rgb(0,0,0)" stroke-width="181" stroke-linejoin="round" stroke-linecap="round" d="M 3691,2199 C 3691,2199 3785,1687 4308,1778"/>
        <path fill="none" stroke="rgb(0,0,0)" stroke-width="181" stroke-linejoin="round" stroke-linecap="round" d="M 3010,1977 C 3010,1977 3139,979 4185,1112"/>
       </g>
      </g>
     </g>
    </g>
   </g>
  </g>
 </g>
</svg>